<?xml version="1.0" encoding="UTF-8" standalone="no"?>
<!-- Created with Inkscape (http://www.inkscape.org/) -->

<svg
   version="1.1"
   id="svg2"
   xml:space="preserve"
   width="605.89331"
   height="615.09332"
   viewBox="0 0 605.89331 615.09332"
   sodipodi:docname="6101097.eps"
   xmlns:inkscape="http://www.inkscape.org/namespaces/inkscape"
   xmlns:sodipodi="http://sodipodi.sourceforge.net/DTD/sodipodi-0.dtd"
   xmlns="http://www.w3.org/2000/svg"
   xmlns:svg="http://www.w3.org/2000/svg"><defs
     id="defs6" /><sodipodi:namedview
     id="namedview4"
     pagecolor="#ffffff"
     bordercolor="#666666"
     borderopacity="1.0"
     inkscape:pageshadow="2"
     inkscape:pageopacity="0.0"
     inkscape:pagecheckerboard="0" /><g
     id="g8"
     inkscape:groupmode="layer"
     inkscape:label="ink_ext_XXXXXX"
     transform="matrix(1.3333333,0,0,-1.3333333,0,615.09333)"><g
       id="g10"
       transform="scale(0.1)"><path
         d="m 3452.56,4610.21 -292.51,-146.72 c -21.86,-9.32 -36.06,-30.79 -36.06,-54.56 V 4272.1 c 0,-122.24 34.12,-243.38 104.31,-350.33 52.68,-80.28 122.56,-182.89 238.83,-241.56 h 52.49 c 129.42,39.48 226.03,144.7 285.1,234.7 70.19,106.94 104.3,228.08 104.3,350.32 v 143.7 c 0,23.77 -14.19,45.24 -36.06,54.56 l -333.2,141.97 c -14.86,6.33 -72.34,11.08 -87.2,4.75"
         style="fill:#dadbd8;fill-opacity:1;fill-rule:nonzero;stroke:none"
         id="path12" /><path
         d="m 3440.77,4605.46 -333.2,-141.97 c -21.87,-9.32 -36.06,-30.79 -36.06,-54.56 V 4272.1 c 0,-122.24 34.12,-243.38 104.3,-350.33 59.07,-89.99 150.53,-182.66 291.32,-241.56 129.43,39.48 226.04,144.7 285.1,234.7 70.19,106.94 104.31,228.08 104.31,350.32 v 143.7 c 0,23.77 -14.19,45.24 -36.06,54.56 l -333.21,141.97 c -14.85,6.33 -31.64,6.33 -46.5,0"
         style="fill:#f3f2f1;fill-opacity:1;fill-rule:nonzero;stroke:none"
         id="path14" /><path
         d="m 3855.47,4302.29 c 0.18,0.01 0.39,-2.16 0.63,-6.29 0.21,-4.7 0.48,-10.7 0.81,-18.12 0.31,-7.88 0.77,-17.52 0.23,-28.72 -0.58,-11.17 -0.1,-23.98 -1.74,-38 -1.34,-14.04 -2.28,-29.49 -5.17,-45.84 -1.33,-8.19 -2.37,-16.72 -4.06,-25.4 -1.86,-8.65 -3.77,-17.54 -5.73,-26.66 -8.71,-36.26 -20.78,-75.68 -38.42,-115.05 -17.69,-39.33 -38.59,-74.84 -59.77,-105.58 -11.1,-15.01 -21.34,-29.52 -32.33,-41.98 -5.4,-6.3 -10.3,-12.65 -15.57,-18.27 -5.28,-5.58 -10.36,-10.95 -15.21,-16.09 -9.45,-10.49 -19.15,-18.83 -27.25,-26.56 -8.04,-7.8 -15.47,-13.96 -21.63,-18.87 -5.79,-4.66 -10.47,-8.43 -14.13,-11.38 -3.26,-2.55 -5.03,-3.83 -5.14,-3.69 -0.11,0.14 1.43,1.69 4.48,4.5 3.49,3.14 7.95,7.14 13.47,12.1 5.94,5.14 13.14,11.49 20.96,19.46 7.87,7.9 17.34,16.38 26.57,26.97 4.74,5.18 9.71,10.6 14.87,16.23 5.16,5.65 9.96,12.03 15.25,18.35 10.78,12.49 20.81,26.99 31.72,41.96 20.8,30.67 41.4,65.95 58.96,104.97 17.49,39.05 29.6,78.09 38.5,114.03 2.02,9.03 3.99,17.85 5.9,26.43 1.77,8.6 2.88,17.06 4.29,25.18 3.06,16.22 4.2,31.56 5.77,45.5 1.87,13.92 1.65,26.66 2.49,37.78 0.82,11.14 0.66,20.74 0.66,28.6 0.07,7.42 0.13,13.42 0.17,18.11 0.1,4.14 0.24,6.33 0.42,6.33"
         style="fill:#dadbd8;fill-opacity:1;fill-rule:nonzero;stroke:none"
         id="path16" /><path
         d="m 3439.21,4004.86 -191.14,151.96 53.04,66.7 128.16,-101.9 187.17,209.45 63.53,-56.77 -240.76,-269.44"
         style="fill:#ffffff;fill-opacity:1;fill-rule:nonzero;stroke:none"
         id="path18" /><path
         d="m 4341.94,3861.61 h -36.16 v 196.84 c 0,46.33 -37.69,84.02 -84.02,84.02 -46.33,0 -84.02,-37.69 -84.02,-84.02 v -196.84 h -36.17 v 196.84 c 0,66.26 53.92,120.18 120.19,120.18 66.27,0 120.18,-53.92 120.18,-120.18 v -196.84"
         style="fill:#e7e8e5;fill-opacity:1;fill-rule:nonzero;stroke:none"
         id="path20" /><path
         d="m 4352.96,3741.34 h -262.4 c -16.99,0 -30.77,13.78 -30.77,30.77 v 192.35 c 0,16.99 13.78,30.77 30.77,30.77 h 262.4 c 16.99,0 30.77,-13.78 30.77,-30.77 v -192.35 c 0,-16.99 -13.78,-30.77 -30.77,-30.77"
         style="fill:#e7e8e5;fill-opacity:1;fill-rule:nonzero;stroke:none"
         id="path22" /><path
         d="m 4246.62,3861.67 c 6.34,6.38 10.25,15.15 10.25,24.87 0,19.67 -15.95,35.62 -35.62,35.62 -19.68,0 -35.63,-15.95 -35.63,-35.62 0,-16.28 10.99,-29.86 25.91,-34.11 l -7.66,-33.86 h 33.91 l -6.81,33.86 c 6.01,1.71 11.38,4.93 15.65,9.24"
         style="fill:#fafaf9;fill-opacity:1;fill-rule:nonzero;stroke:none"
         id="path24" /><path
         d="m 230.891,987.762 c -38.649,24.268 -82.922,39.508 -128.321,44.168 -20.9684,2.15 -43.8786,1.54 -60.695,-11.16 -3.5703,-2.7 -7.0508,-6.69 -6.2539,-11.09 0.5898,-3.23 3.3242,-5.59 5.9375,-7.58 52.2109,-39.83 131.1874,-44.858 189.3324,-14.338"
         style="fill:#dadbd8;fill-opacity:1;fill-rule:nonzero;stroke:none"
         id="path26" /><path
         d="m 227.598,991.391 c -29.047,22.669 -58.266,45.489 -82.879,72.919 -24.61,27.43 -44.61,59.99 -51.9612,96.1 -2.2305,10.95 -2.9219,23.46 4.1055,32.15 C 162.93,1140.97 214.824,1074.24 227.598,991.391"
         style="fill:#dadbd8;fill-opacity:1;fill-rule:nonzero;stroke:none"
         id="path28" /><path
         d="m 230.207,988.262 c -4.977,36.138 -6.766,73.278 1.535,108.808 8.301,35.53 27.625,69.53 57.961,89.79 11.418,-26.68 6.512,-57.42 -1.531,-85.31 -12.43,-43.09 -31.926,-84.14 -57.473,-120.999"
         style="fill:#dadbd8;fill-opacity:1;fill-rule:nonzero;stroke:none"
         id="path30" /><path
         d="m 294.973,872.211 c -39.317,-4.781 -73.555,-25.5 -102.91,-52.082 -29.356,-26.59 -50.219,-62.41 -58.864,-101.047 38.563,2.379 71.278,29.57 95.004,60.066 23.727,30.493 40.164,63.942 66.231,92.461"
         style="fill:#dadbd8;fill-opacity:1;fill-rule:nonzero;stroke:none"
         id="path32" /><path
         d="m 309.035,853.652 c -31.664,77.996 -20.191,171.988 29.309,240.078 22.398,-79.67 14.176,-169.66 -29.309,-240.078"
         style="fill:#dadbd8;fill-opacity:1;fill-rule:nonzero;stroke:none"
         id="path34" /><path
         d="m 394.609,751.762 c -35.679,2.207 -71.953,-6.293 -102.933,-24.121 -30.981,-17.832 -56.551,-44.93 -72.555,-76.899 -2.176,-4.34 -4.094,-9.871 -1.18,-13.762 2.528,-3.378 7.422,-3.699 11.633,-3.421 34.586,2.242 65.239,23.05 90.531,46.742 25.293,23.699 47.329,51.07 75.278,71.558"
         style="fill:#dadbd8;fill-opacity:1;fill-rule:nonzero;stroke:none"
         id="path36" /><path
         d="m 391.879,757.309 c -18.406,58.89 -19.551,123.062 -3.266,182.57 6.434,23.5 17.231,48.242 38.965,59.262 1.852,0.939 4.012,1.779 5.961,1.049 1.844,-0.698 2.914,-2.588 3.766,-4.37 7.73,-16.148 9.984,-34.488 9.187,-52.379 -0.797,-17.89 -4.508,-35.5 -8.211,-53.019 -6.84,-32.41 -10.484,-67.242 -28.258,-95.18 -4.218,-6.64 -7.933,-13.801 -11.3,-20.91 -3.364,-7.102 -3.387,-9.602 -6.473,-15.25"
         style="fill:#dadbd8;fill-opacity:1;fill-rule:nonzero;stroke:none"
         id="path38" /><path
         d="m 618.387,723.559 c -16.782,63.832 1.031,141.222 41.258,193.55 2.96,3.852 6.886,7.981 11.726,7.532 7.406,-0.68 9.328,-10.551 8.996,-17.981 -2.91,-65.23 -24.668,-129.519 -61.98,-183.101"
         style="fill:#dadbd8;fill-opacity:1;fill-rule:nonzero;stroke:none"
         id="path40" /><path
         d="m 638.809,709.602 c 77.554,-20.18 166.527,-0.571 231.031,46.988 -38.231,19.371 -83.293,24.902 -125.07,15.351 -41.778,-9.562 -79.954,-28.281 -105.961,-62.339"
         style="fill:#dadbd8;fill-opacity:1;fill-rule:nonzero;stroke:none"
         id="path42" /><path
         d="m 656.031,752.102 c 43.438,70.82 126.707,117.039 209.676,121.238 -9.559,-33.738 -37.289,-59.969 -68.578,-75.82 -31.293,-15.848 -66.219,-22.75 -100.652,-29.43 -13.391,-2.61 -31.762,-5.461 -40.446,-15.988"
         style="fill:#dadbd8;fill-opacity:1;fill-rule:nonzero;stroke:none"
         id="path44" /><path
         d="m 622.703,958.34 c 11.762,40.301 23.586,80.95 26.817,122.8 3.23,41.85 -2.739,85.55 -24.457,121.47 -40.571,-78.51 -44.68,-170.24 -3.579,-248.469"
         style="fill:#dadbd8;fill-opacity:1;fill-rule:nonzero;stroke:none"
         id="path46" /><path
         d="m 759.301,1027.38 c 47.445,86.24 144.246,155.12 242.199,164.77 -37.789,-94.08 -140.836,-166.79 -242.199,-164.77"
         style="fill:#dadbd8;fill-opacity:1;fill-rule:nonzero;stroke:none"
         id="path48" /><path
         d="m 729.449,1010.49 c 70.762,-10.779 131.047,-55.978 197.176,-83.369 14.141,-5.859 29.398,-10.531 44.574,-8.539 15.18,1.988 30.151,12.168 33.551,27.098 2.83,12.39 -2.81,25.55 -11.703,34.629 -8.895,9.082 -20.645,14.75 -32.379,19.64 -72.023,29.981 -149.262,30.731 -225.129,12.551"
         style="fill:#dadbd8;fill-opacity:1;fill-rule:nonzero;stroke:none"
         id="path50" /><path
         d="m 688.504,960.859 c 16.019,-4.589 21.492,-12.879 34.18,-23.687 43.035,-36.652 94.656,-63.172 149.515,-76.813 5.715,-1.418 13.207,-1.98 16.035,3.18 2.477,4.512 -0.656,9.973 -3.863,13.981 -22.988,28.761 -55.773,48.441 -90.281,61.289 -34.504,12.851 -64.402,28.332 -105.586,25.011"
         style="fill:#dadbd8;fill-opacity:1;fill-rule:nonzero;stroke:none"
         id="path52" /><path
         d="m 642.297,1260.6 c 57.539,-53.7 138.586,-81.28 216.937,-73.81 3.567,0.34 7.454,0.91 9.879,3.55 5.457,5.94 -1.093,15.11 -7.453,20.07 -63.781,49.73 -141.039,70.34 -219.363,50.19"
         style="fill:#dadbd8;fill-opacity:1;fill-rule:nonzero;stroke:none"
         id="path54" /><path
         d="m 697.078,1280.65 c 76.063,57.03 180.36,74.24 270.707,44.67 -34.094,-33.6 -81.39,-51.67 -129,-56.63 -47.605,-4.96 -95.277,0.32 -141.707,11.96"
         style="fill:#dadbd8;fill-opacity:1;fill-rule:nonzero;stroke:none"
         id="path56" /><path
         d="m 675.305,1418.39 c -6.262,63.66 -2.2,113.92 -6.617,177.88 -0.352,5.11 -1.454,11.26 -6.231,13.1 -6.656,2.56 -12.203,-5.62 -14.391,-12.41 -18.953,-58.96 -8.593,-126.58 27.149,-177.17"
         style="fill:#dadbd8;fill-opacity:1;fill-rule:nonzero;stroke:none"
         id="path58" /><path
         d="m 670.727,1411.36 c 43.148,26.68 75.519,61.53 105.457,102.49 20.828,28.5 38.386,62.64 33.652,97.63 -29.25,0.58 -57.043,-15.55 -76.07,-37.78 -19.024,-22.22 -30.332,-50.01 -38.778,-78.02 -8.445,-28.01 -14.355,-56.79 -24.261,-84.32"
         style="fill:#dadbd8;fill-opacity:1;fill-rule:nonzero;stroke:none"
         id="path60" /><path
         d="m 774.336,1440.14 c 94.695,35.02 183.047,87.12 259.524,153.03 -31,12.49 -66.493,5.02 -97.485,-7.49 -70.812,-28.59 -128.664,-76.83 -163.395,-144.84"
         style="fill:#dadbd8;fill-opacity:1;fill-rule:nonzero;stroke:none"
         id="path62" /><path
         d="m 699.859,1376.53 c 47.907,-5.24 96.571,-8.65 144.106,-0.7 46.723,7.81 90.875,26.33 134.531,44.7 3.617,1.52 7.559,3.35 9.141,6.94 1.722,3.9 -0.114,8.65 -3.274,11.51 -3.164,2.86 -7.367,4.23 -11.472,5.38 -47.465,13.27 -98.688,7.06 -145.387,-8.69 -46.699,-15.75 -84.988,-34.45 -127.645,-59.14"
         style="fill:#dadbd8;fill-opacity:1;fill-rule:nonzero;stroke:none"
         id="path64" /><path
         d="m 426.297,1258.43 c -32.688,65.98 -30.563,142.97 -2.328,210.97 19.879,-30.28 22.304,-68.85 18.672,-104.9 -3.637,-36.04 -14.61,-73.13 -15.321,-109.35"
         style="fill:#dadbd8;fill-opacity:1;fill-rule:nonzero;stroke:none"
         id="path66" /><path
         d="m 295.719,1324.28 c -81.606,1.56 -163.239,-33.21 -218.6526,-93.14 40.7306,-6.4 82.6796,4.1 119.7306,22.2 37.047,18.09 69.969,43.47 102.601,68.67"
         style="fill:#dadbd8;fill-opacity:1;fill-rule:nonzero;stroke:none"
         id="path68" /><path
         d="m 207.93,1353.64 c -39.922,3.24 -78.336,8.18 -116.723,-3.58 -38.3828,-11.76 -73.3203,-38.46 -88.96481,-75.43 37.33981,-4.21 75.20311,5.15 109.42981,20.66 34.226,15.51 65.348,36.99 96.258,58.35"
         style="fill:#dadbd8;fill-opacity:1;fill-rule:nonzero;stroke:none"
         id="path70" /><path
         d="m 337.914,1352.3 c -35.918,23.54 -72.797,47.5 -114.613,57.25 -41.821,9.74 -90.281,2.54 -119.442,-28.98 33.852,-19.86 74.922,-22.21 114.172,-22.18 39.25,0.03 87.367,0.48 124.367,-12.62"
         style="fill:#dadbd8;fill-opacity:1;fill-rule:nonzero;stroke:none"
         id="path72" /><path
         d="m 338.129,1350.4 c -61.402,60.3 -84.68,168.61 -59.977,251.04 48.266,-73.33 69.879,-163.81 59.977,-251.04"
         style="fill:#dadbd8;fill-opacity:1;fill-rule:nonzero;stroke:none"
         id="path74" /><path
         d="m 506.961,1521.23 c 11.582,26.92 19.727,55.18 30.113,82.58 10.387,27.4 23.301,54.37 42.934,76.13 19.629,21.76 46.773,37.96 76.043,39.41 -18.321,-82.96 -73.426,-157.09 -147.586,-198.55"
         style="fill:#dadbd8;fill-opacity:1;fill-rule:nonzero;stroke:none"
         id="path76" /><path
         d="m 476.41,1485.64 c -19.164,26.38 -41.305,62.18 -67.289,81.87 -25.988,19.68 -59.824,31.6 -91.539,24.04 32.254,-57.66 93.199,-98.3 158.828,-105.91"
         style="fill:#dadbd8;fill-opacity:1;fill-rule:nonzero;stroke:none"
         id="path78" /><path
         d="m 482.52,1519.04 c -12.559,31.92 -25.211,64.17 -30.29,98.09 -5.082,33.92 -1.988,70.15 15.356,99.75 33.703,-63.72 44.559,-132.11 16.652,-198.56"
         style="fill:#dadbd8;fill-opacity:1;fill-rule:nonzero;stroke:none"
         id="path80" /><path
         d="m 507.27,1716.88 c 19.089,63.15 76.925,109.66 139.363,131 7.871,2.69 16.211,4.93 24.433,3.66 8.219,-1.27 16.282,-6.89 18.008,-15.03 2.278,-10.75 -6.597,-20.37 -14.945,-27.51 -48.621,-41.57 -105.774,-73.13 -166.859,-92.12"
         style="fill:#dadbd8;fill-opacity:1;fill-rule:nonzero;stroke:none"
         id="path82" /><path
         d="m 507.961,1768.53 c 2.426,40.72 4.969,82.03 18.211,120.62 13.246,38.58 38.773,74.78 75.91,91.66 6.316,-41.13 -11.828,-82.05 -33.715,-117.44 -21.883,-35.39 -48.258,-68.79 -61.406,-108.27"
         style="fill:#dadbd8;fill-opacity:1;fill-rule:nonzero;stroke:none"
         id="path84" /><path
         d="m 506.961,1740.5 c -15.777,46.02 -17.41,104.49 -44.973,144.59 -19.265,28.03 -50.121,47.13 -66.718,76.81 -11.032,-27.72 -7.657,-59.67 3.878,-87.2 11.536,-27.52 30.594,-51.21 50.993,-72.99 20.394,-21.79 37.859,-38.17 56.82,-61.21"
         style="fill:#dadbd8;fill-opacity:1;fill-rule:nonzero;stroke:none"
         id="path86" /><path
         d="m 507.27,384.98 c -1.223,-0.011 -2.29,307.051 -2.372,685.74 -0.085,378.82 0.836,685.81 2.063,685.81 1.227,0 2.289,-306.99 2.375,-685.81 0.086,-378.689 -0.84,-685.74 -2.066,-685.74"
         style="fill:#dadbd8;fill-opacity:1;fill-rule:nonzero;stroke:none"
         id="path88" /><path
         d="m 775.602,1304.76 c 0.086,-0.29 -4.032,-1.82 -11.543,-4.33 -8.293,-2.8 -18.969,-6.4 -31.774,-10.72 -26.789,-9.13 -63.59,-22.34 -103.531,-38.71 -39.551,-16.97 -76.848,-30.74 -98.086,-49.15 -10.613,-9.08 -16.703,-18.91 -19.711,-26.07 -3.047,-7.21 -3.59,-11.62 -3.996,-11.54 -0.152,0.02 -0.102,1.12 0.133,3.22 0.351,2.07 0.883,5.16 2.254,8.95 2.59,7.57 8.511,18.08 19.234,27.79 10.676,9.73 25.535,18.48 42.563,26.44 17.023,7.94 35.89,16.23 55.925,24.46 40.063,16.42 77.153,29.21 104.243,37.59 13.539,4.22 24.585,7.34 32.246,9.39 7.675,2.01 11.957,2.98 12.043,2.68"
         style="fill:#dadbd8;fill-opacity:1;fill-rule:nonzero;stroke:none"
         id="path90" /><path
         d="m 863.559,1520.8 c 0.097,-0.11 -1.02,-1.3 -3.239,-3.45 -2.613,-2.46 -5.871,-5.51 -9.851,-9.25 -9.153,-8.32 -21.606,-19.63 -36.785,-33.42 -31.758,-28.28 -74.832,-66.63 -122.426,-109.01 -47.793,-42.54 -89.094,-83.19 -117.715,-113.79 -14.332,-15.29 -25.617,-27.95 -33.316,-36.79 -3.594,-4.1 -6.536,-7.46 -8.899,-10.16 -2.062,-2.3 -3.203,-3.46 -3.32,-3.37 -0.121,0.1 0.789,1.45 2.625,3.94 1.859,2.47 4.566,6.14 8.265,10.7 7.309,9.2 18.262,22.21 32.336,37.8 28.11,31.23 69.184,72.36 117.067,114.98 47.957,42.44 91.597,80.57 123.308,108.05 15.563,13.36 28.332,24.31 37.715,32.36 4.203,3.49 7.645,6.34 10.406,8.63 2.411,1.94 3.723,2.9 3.829,2.78"
         style="fill:#dadbd8;fill-opacity:1;fill-rule:nonzero;stroke:none"
         id="path92" /><path
         d="m 639.664,1322.41 c -1.254,0.56 8.731,23.61 18.68,52.77 10.039,29.14 14.765,53.75 16.035,53.54 1.16,-0.12 -1.668,-25.44 -11.832,-54.97 -5,-14.73 -10.524,-27.7 -14.863,-36.9 -4.352,-9.2 -7.477,-14.68 -8.02,-14.44"
         style="fill:#dadbd8;fill-opacity:1;fill-rule:nonzero;stroke:none"
         id="path94" /><path
         d="m 507.551,1136.56 c -0.246,-0.18 -2.86,2.87 -7.367,8.55 -4.996,6.41 -11.321,14.52 -18.864,24.19 -15.847,20.49 -37.757,48.76 -62.312,79.71 -24.57,30.94 -47.137,58.7 -63.492,78.78 -7.707,9.55 -14.172,17.55 -19.278,23.87 -4.504,5.67 -6.883,8.91 -6.652,9.11 0.23,0.2 3.055,-2.66 7.965,-7.99 4.918,-5.33 11.879,-13.17 20.371,-22.97 16.98,-19.58 39.961,-47.06 64.562,-78.04 24.586,-30.99 46.129,-59.6 61.344,-80.58 7.613,-10.49 13.672,-19.06 17.746,-25.05 4.082,-6 6.223,-9.4 5.977,-9.58"
         style="fill:#dadbd8;fill-opacity:1;fill-rule:nonzero;stroke:none"
         id="path96" /><path
         d="m 448.715,1212.09 c -0.723,-0.77 -16.422,17.85 -24.649,46.15 -6.066,19.94 -6.336,38.18 -5.589,46.52 l 1.961,-0.16 c -0.875,-3.56 -1.52,-5.43 -1.872,-5.37 -0.347,0.05 -0.367,2.03 -0.074,5.69 l 1.957,-0.16 c 0.719,-8.27 1.973,-25.88 7.871,-45.26 7.942,-27.42 21.586,-46.65 20.395,-47.41"
         style="fill:#dadbd8;fill-opacity:1;fill-rule:nonzero;stroke:none"
         id="path98" /><path
         d="m 372.758,1307.64 c -0.57,-0.61 -5.621,5.75 -17.207,10 -11.496,4.45 -28.797,5.42 -47.781,3.8 -19,-1.4 -35.969,-4.78 -48.114,-7.77 -12.148,-3.01 -19.57,-5.37 -19.797,-4.75 -0.203,0.53 6.864,3.95 18.954,7.78 12.074,3.8 29.277,7.74 48.625,9.16 19.195,1.66 37.406,0.18 49.289,-5.31 12.043,-5.34 16.429,-12.8 16.031,-12.91"
         style="fill:#dadbd8;fill-opacity:1;fill-rule:nonzero;stroke:none"
         id="path100" /><path
         d="m 354.754,1330.8 c -0.34,-0.69 -10.024,4.02 -26.367,9.6 -16.309,5.61 -39.547,11.5 -65.782,13.54 -26.246,1.96 -50.109,-0.34 -67.082,-3.41 -17,-3.04 -27.285,-6.23 -27.515,-5.49 -0.094,0.29 2.39,1.33 6.988,2.97 4.578,1.71 11.387,3.66 19.914,5.6 17.024,3.9 41.309,6.75 68.035,4.75 26.707,-2.07 50.278,-8.57 66.516,-15.01 8.133,-3.2 14.566,-6.17 18.836,-8.55 4.297,-2.32 6.594,-3.73 6.457,-4"
         style="fill:#dadbd8;fill-opacity:1;fill-rule:nonzero;stroke:none"
         id="path102" /><path
         d="m 506.961,1428.72 c -1.188,-0.3 -9.797,29.6 -19.227,66.79 -9.433,37.19 -16.117,67.58 -14.925,67.88 1.187,0.3 9.793,-29.6 19.226,-66.79 9.43,-37.19 16.113,-67.58 14.926,-67.88"
         style="fill:#dadbd8;fill-opacity:1;fill-rule:nonzero;stroke:none"
         id="path104" /><path
         d="m 508.184,1428.72 c -1.321,-0.43 -6.856,19.55 -21.309,39.99 -14.066,20.86 -32.023,31.33 -31.367,32.37 0.234,0.46 5.191,-1.36 12.105,-6.25 6.934,-4.82 15.504,-13 22.895,-23.57 15.004,-21.27 18.754,-42.46 17.676,-42.54"
         style="fill:#dadbd8;fill-opacity:1;fill-rule:nonzero;stroke:none"
         id="path106" /><path
         d="m 507.27,548.66 c -0.477,-0.07 -1.379,7.379 -4.84,20.422 -3.422,13.039 -9.864,31.539 -20.52,53.16 -21.215,43.36 -59.816,98.317 -108.867,153.379 -24.309,27.77 -47.891,53.969 -67.902,79.051 -20.047,25.047 -36.528,48.918 -48.555,70.027 -12.07,21.102 -19.926,39.203 -24.512,51.973 -2.254,6.398 -3.906,11.398 -4.812,14.859 -0.973,3.438 -1.41,5.258 -1.266,5.301 0.399,0.129 2.633,-7.023 7.692,-19.543 5.05,-12.508 13.285,-30.269 25.605,-51.008 12.289,-20.75 28.906,-44.261 49.031,-69.039 20.094,-24.832 43.711,-50.883 68.059,-78.703 49.183,-55.199 87.695,-110.859 108.351,-154.93 10.387,-21.988 16.442,-40.839 19.371,-54.109 1.422,-6.648 2.379,-11.828 2.719,-15.398 0.442,-3.551 0.598,-5.422 0.446,-5.442"
         style="fill:#dadbd8;fill-opacity:1;fill-rule:nonzero;stroke:none"
         id="path108" /><path
         d="m 749.746,822.539 c 0.145,-0.328 -4.496,-2.68 -12.707,-7.141 -8.152,-4.566 -19.715,-11.628 -32.965,-21.777 -13.25,-10.152 -28.07,-23.469 -43.289,-39.492 -15.191,-16.047 -30.844,-34.688 -46.816,-54.66 -31.938,-40.071 -61.809,-75.528 -79.696,-103.828 -9.078,-14.039 -15.683,-25.879 -20.007,-34.18 -4.364,-8.289 -6.672,-12.941 -6.996,-12.801 -0.137,0.059 0.269,1.301 1.179,3.61 0.946,2.281 2.227,5.71 4.27,9.949 3.867,8.582 10.094,20.73 18.902,35.09 17.371,28.992 47.004,64.933 78.887,104.941 16.004,20.012 31.847,38.68 47.328,54.711 15.508,16 30.719,29.23 44.359,39.168 13.641,9.941 25.582,16.66 34.039,20.801 4.211,2.121 7.649,3.422 9.922,4.39 2.293,0.942 3.528,1.36 3.59,1.219"
         style="fill:#dadbd8;fill-opacity:1;fill-rule:nonzero;stroke:none"
         id="path110" /><path
         d="m 754.492,733.691 c 0.055,-0.652 -10.258,-1.902 -26.863,-3.902 -16.543,-2.137 -39.574,-4.91 -63.699,-12.547 -24.039,-7.832 -44.024,-19.762 -57.039,-29.933 -13.149,-10.161 -19.348,-18.571 -19.957,-18.079 -0.215,0.161 1.074,2.45 3.976,6.192 2.875,3.758 7.578,8.789 13.996,14.32 12.809,11.039 32.981,23.68 57.66,31.719 24.715,7.828 48.063,10.098 64.75,11.449 16.754,1.211 27.125,1.36 27.176,0.781"
         style="fill:#dadbd8;fill-opacity:1;fill-rule:nonzero;stroke:none"
         id="path112" /><path
         d="m 594.773,678.992 c -1.402,0.797 10.704,19.289 20.09,44.156 8.813,25.094 10.875,47.102 12.457,46.852 0.571,-0.07 0.547,-5.578 -0.445,-14.418 -1.055,-8.801 -3.172,-21.051 -7.836,-33.953 -4.695,-12.867 -10.851,-23.637 -15.578,-31.129 -4.789,-7.488 -8.191,-11.809 -8.688,-11.508"
         style="fill:#dadbd8;fill-opacity:1;fill-rule:nonzero;stroke:none"
         id="path114" /><path
         d="m 828.273,1061.07 c 0.055,-0.15 -1.425,-0.93 -4.296,-2.29 -3.332,-1.51 -7.508,-3.41 -12.625,-5.74 -5.528,-2.37 -12.239,-5.37 -19.801,-9.36 -7.59,-3.91 -16.446,-7.95 -25.664,-13.48 -4.684,-2.67 -9.571,-5.45 -14.653,-8.34 -5.082,-2.92 -10.109,-6.39 -15.457,-9.74 -10.8,-6.55 -21.621,-14.62 -33.172,-22.858 C 680,972.109 656.234,951.801 633.355,928.359 610.695,904.68 591.211,880.23 574.84,857.051 c -7.844,-11.832 -15.539,-22.922 -21.719,-33.942 -3.164,-5.457 -6.461,-10.597 -9.207,-15.777 -2.715,-5.184 -5.324,-10.16 -7.824,-14.93 -5.219,-9.402 -8.945,-18.39 -12.602,-26.113 -3.722,-7.687 -6.5,-14.5 -8.679,-20.109 -2.149,-5.188 -3.903,-9.418 -5.301,-12.809 -1.262,-2.91 -1.992,-4.422 -2.137,-4.371 -0.144,0.051 0.305,1.66 1.293,4.672 1.199,3.469 2.695,7.82 4.535,13.137 1.938,5.722 4.492,12.652 8.016,20.472 3.453,7.848 7.004,16.981 12.07,26.528 2.434,4.843 4.977,9.902 7.621,15.152 2.684,5.258 5.926,10.48 9.039,16.008 6.086,11.183 13.719,22.433 21.528,34.402 16.304,23.481 35.851,48.211 58.691,72.07 23.063,23.629 47.102,44.008 70.004,61.11 11.703,8.209 22.68,16.219 33.641,22.679 5.425,3.31 10.531,6.72 15.687,9.59 5.164,2.82 10.133,5.53 14.887,8.13 9.371,5.39 18.371,9.25 26.097,12.97 7.7,3.79 14.543,6.58 20.196,8.71 5.254,2.02 9.547,3.67 12.972,4.98 2.981,1.1 4.571,1.6 4.625,1.46"
         style="fill:#dadbd8;fill-opacity:1;fill-rule:nonzero;stroke:none"
         id="path116" /><path
         d="m 636.371,932.488 c -0.391,0.071 1.746,7.524 10.551,15.723 8.594,8.18 24.266,15.758 42.519,16.309 18.192,0.48 33.965,-4.61 44.739,-8.739 10.832,-4.261 17.129,-7.711 16.918,-8.222 -0.254,-0.618 -7,1.812 -17.95,5.25 -10.906,3.343 -26.328,7.742 -43.566,7.273 -17.18,-0.531 -32.012,-7.141 -40.613,-14.25 -8.789,-7.082 -11.891,-13.773 -12.598,-13.344"
         style="fill:#dadbd8;fill-opacity:1;fill-rule:nonzero;stroke:none"
         id="path118" /><path
         d="m 607.688,902.898 c -1.215,0.684 9.605,16.543 12.07,39.274 2.836,22.699 -4.047,40.629 -2.703,41.008 0.488,0.199 2.898,-3.969 4.988,-11.438 2.098,-7.433 3.484,-18.262 2.125,-30.082 -1.398,-11.808 -5.242,-22.031 -8.992,-28.781 -3.75,-6.777 -7.059,-10.289 -7.488,-9.981"
         style="fill:#dadbd8;fill-opacity:1;fill-rule:nonzero;stroke:none"
         id="path120" /><path
         d="M 295.195,504.672 C 301.813,387.32 337.176,267.98 391.566,147.32 h 236.52 c 51.871,119.461 84.789,238.621 90.641,357.352 H 295.195"
         style="fill:#dadbd8;fill-opacity:1;fill-rule:nonzero;stroke:none"
         id="path122" /><path
         d="m 680.395,314.781 c 0,-1.23 -77.875,-2.222 -173.918,-2.222 -96.075,0 -173.934,0.992 -173.934,2.222 0,1.231 77.859,2.219 173.934,2.219 96.043,0 173.918,-0.988 173.918,-2.219"
         style="fill:#fafaf9;fill-opacity:1;fill-rule:nonzero;stroke:none"
         id="path124" /><path
         d="m 675.109,272.27 c 0,-1.231 -73.007,-2.219 -163.043,-2.219 -90.066,0 -163.054,0.988 -163.054,2.219 0,1.222 72.988,2.222 163.054,2.222 90.036,0 163.043,-1 163.043,-2.222"
         style="fill:#fafaf9;fill-opacity:1;fill-rule:nonzero;stroke:none"
         id="path126" /><path
         d="m 395.383,427.621 c 1.222,0 2.219,-24.391 2.219,-54.48 0,-30.09 -0.997,-54.481 -2.219,-54.481 -1.227,0 -2.223,24.391 -2.223,54.481 0,30.089 0.996,54.48 2.223,54.48"
         style="fill:#fafaf9;fill-opacity:1;fill-rule:nonzero;stroke:none"
         id="path128" /><path
         d="m 522.105,427.621 c 1.227,0 2.219,-25.262 2.219,-56.422 0,-31.16 -0.992,-56.418 -2.219,-56.418 -1.222,0 -2.218,25.258 -2.218,56.418 0,31.16 0.996,56.422 2.218,56.422"
         style="fill:#fafaf9;fill-opacity:1;fill-rule:nonzero;stroke:none"
         id="path130" /><path
         d="m 641.074,428.582 c 1.227,0 2.219,-25.773 2.219,-57.551 0,-31.781 -0.992,-57.539 -2.219,-57.539 -1.226,0 -2.219,25.758 -2.219,57.539 0,31.778 0.993,57.551 2.219,57.551"
         style="fill:#fafaf9;fill-opacity:1;fill-rule:nonzero;stroke:none"
         id="path132" /><path
         d="m 711.215,427.621 c 0,-1.23 -91.336,-2.219 -203.981,-2.219 -112.683,0 -204.004,0.989 -204.004,2.219 0,1.219 91.321,2.219 204.004,2.219 112.645,0 203.981,-1 203.981,-2.219"
         style="fill:#fafaf9;fill-opacity:1;fill-rule:nonzero;stroke:none"
         id="path134" /><path
         d="m 4380.51,1521.91 c 41.96,17.6 71.8,60.87 72.04,111.86 0.28,66.79 -50.27,121.18 -112.91,121.47 -62.61,0.29 -113.61,-53.63 -113.89,-120.42 -0.21,-51.46 29.85,-95.25 72.26,-112.91 -174.51,-26.29 -166.59,-215.96 -166.59,-215.96 l 412.67,-1.9 c 0,0 9.41,191.73 -163.58,217.86"
         style="fill:#e7e8e5;fill-opacity:1;fill-rule:nonzero;stroke:none"
         id="path136" /><path
         d="m 2525.32,4279.13 c 29.38,5.03 54.83,28.23 62.52,60.73 10.06,42.59 -14.16,84.77 -54.09,94.22 -39.91,9.44 -80.43,-17.42 -90.48,-60.01 -7.75,-32.8 4.95,-65.19 29.41,-82.74 -115.25,9.03 -138.25,-113.17 -138.25,-113.17 l 263.07,-62.25 c 0,0 34.36,120.97 -72.18,163.22"
         style="fill:#e7e8e5;fill-opacity:1;fill-rule:nonzero;stroke:none"
         id="path138" /><path
         d="m 4391.75,3261.07 c 24.51,14.71 39.17,44.3 34.74,76.02 -5.83,41.55 -42.14,70.82 -81.11,65.37 -38.96,-5.44 -65.82,-43.55 -59.99,-85.1 4.5,-32.01 27.12,-56.54 55.08,-63.71 -106.14,-32.03 -84.17,-149.23 -84.17,-149.23 l 256.74,35.9 c 0,0 -11.39,120.05 -121.29,120.75"
         style="fill:#f3f2f1;fill-opacity:1;fill-rule:nonzero;stroke:none"
         id="path140" /><path
         d="m 271.352,3224.82 -138.7,110.26 38.481,48.4 93.004,-73.94 135.812,151.99 46.106,-41.2 -174.703,-195.51"
         style="fill:#f3f2f1;fill-opacity:1;fill-rule:nonzero;stroke:none"
         id="path142" /><path
         d="m 4473.16,143.75 c 0,-1.437 -1001.43,-2.609 -2236.47,-2.609 C 1001.22,141.141 0,142.313 0,143.75 c 0,1.441 1001.22,2.602 2236.69,2.602 1235.04,0 2236.47,-1.161 2236.47,-2.602"
         style="fill:#17282f;fill-opacity:1;fill-rule:nonzero;stroke:none"
         id="path144" /><path
         d="m 460.609,3065.05 -306.75,-153.86 c -22.929,-9.77 -37.812,-32.29 -37.812,-57.22 v -143.49 c 0,-128.19 35.773,-255.23 109.379,-367.38 55.254,-84.18 128.535,-191.79 250.461,-253.31 h 55.039 c 135.726,41.39 237.039,151.74 298.98,246.11 73.606,112.15 109.379,239.18 109.379,367.38 v 150.69 c 0,24.93 -14.883,47.45 -37.816,57.22 l -349.422,148.88 c -15.578,6.64 -75.863,11.62 -91.438,4.98"
         style="fill:#f2575d;fill-opacity:1;fill-rule:nonzero;stroke:none"
         id="path146" /><path
         d="m 530.926,2089.79 h -55.039 c 135.726,41.39 237.039,151.74 298.98,246.11 23.676,36.07 43.438,73.69 59.352,112.38 v -105.72 c -1.422,-2.22 -2.864,-4.45 -4.313,-6.66 -61.941,-94.37 -163.254,-204.72 -298.98,-246.11 m 303.293,826.6 -337.211,143.68 c -7.789,3.32 -16.086,4.98 -24.379,4.98 -5.524,0 -11.043,-0.73 -16.414,-2.2 l 4.394,2.2 c 5.192,2.21 15.348,3.14 27.168,3.14 23.629,0 53.883,-3.69 64.27,-8.12 l 282.172,-120.23 v -23.45"
         style="fill:#cc4341;fill-opacity:1;fill-rule:nonzero;stroke:none"
         id="path148" /><path
         d="M 448.246,3060.07 98.8242,2911.19 c -22.9336,-9.77 -37.8164,-32.29 -37.8164,-57.22 v -143.49 c 0,-128.19 35.7774,-255.23 109.3832,-367.38 61.937,-94.37 157.847,-191.55 305.496,-253.31 135.726,41.39 237.039,151.74 298.98,246.11 73.606,112.15 109.379,239.18 109.379,367.38 v 150.69 c 0,24.93 -14.883,47.45 -37.816,57.22 l -349.422,148.88 c -15.578,6.64 -33.184,6.64 -48.762,0"
         style="fill:#f2575d;fill-opacity:1;fill-rule:nonzero;stroke:none"
         id="path150" /><path
         d="m 472.629,2393.7 c -126.508,0 -229.059,102.55 -229.059,229.06 0,126.5 102.551,229.06 229.059,229.06 126.504,0 229.055,-102.56 229.055,-229.06 0,-126.51 -102.551,-229.06 -229.055,-229.06"
         style="fill:#cc4341;fill-opacity:1;fill-rule:nonzero;stroke:none"
         id="path152" /><path
         d="m 567.723,2705.21 c 0,-52.52 -42.575,-95.09 -95.094,-95.09 -52.52,0 -95.098,42.57 -95.098,95.09 0,52.52 42.578,95.1 95.098,95.1 52.519,0 95.094,-42.58 95.094,-95.1"
         style="fill:#ffffff;fill-opacity:1;fill-rule:nonzero;stroke:none"
         id="path154" /><path
         d="m 298.957,2473.46 c 0,0 44.273,105.62 170.172,105.62 125.894,0 177.172,-105.62 177.172,-105.62 0,0 -56.16,-82.97 -180.403,-79.76 -112.472,2.91 -166.941,79.76 -166.941,79.76"
         style="fill:#ffffff;fill-opacity:1;fill-rule:nonzero;stroke:none"
         id="path156" /><path
         d="m 701.684,2622.76 c -0.09,0 -0.243,1.26 -0.454,3.7 -0.199,2.71 -0.468,6.3 -0.804,10.86 -0.16,2.42 -0.336,5.08 -0.531,8 -0.325,2.92 -0.969,6.09 -1.5,9.54 -1.125,6.9 -2.192,14.89 -4.856,23.58 -4.09,17.64 -12.41,38.48 -25.48,60.54 -13.18,21.98 -32.157,44.93 -57.961,64.39 -25.723,19.27 -58.16,35.66 -95.594,42.26 -37.176,6.37 -79.133,5.2 -119.082,-9.99 -10.168,-3.26 -19.723,-8.3 -29.547,-13.01 -9.309,-5.63 -19.113,-10.82 -27.773,-17.87 -9.211,-6.32 -17.258,-14.24 -25.692,-21.85 -7.613,-8.44 -15.621,-16.69 -22.187,-26.27 -13.477,-18.72 -25.246,-39.52 -32.364,-62.4 -7.379,-22.73 -11.355,-46.87 -11.683,-71.45 0.328,-24.58 4.289,-48.73 11.668,-71.47 7.117,-22.89 18.886,-43.69 32.363,-62.42 6.566,-9.58 14.574,-17.84 22.191,-26.28 8.434,-7.62 16.485,-15.53 25.696,-21.86 8.66,-7.05 18.469,-12.24 27.773,-17.87 9.828,-4.71 19.387,-9.75 29.555,-13.01 39.953,-15.19 81.918,-16.36 119.098,-9.99 37.429,6.6 69.871,22.99 95.593,42.27 25.805,19.46 44.778,42.41 57.95,64.39 13.07,22.07 21.39,42.9 25.476,60.54 2.668,8.68 3.731,16.68 4.856,23.57 0.531,3.45 1.175,6.62 1.5,9.54 0.195,2.92 0.371,5.58 0.531,8 0.336,4.56 0.605,8.15 0.804,10.85 0.211,2.45 0.364,3.71 0.454,3.71 0.089,0 0.117,-1.26 0.082,-3.71 -0.075,-2.73 -0.172,-6.34 -0.293,-10.92 -0.086,-2.43 -0.18,-5.11 -0.282,-8.05 -0.246,-2.95 -0.808,-6.15 -1.261,-9.64 -0.969,-6.96 -1.887,-15.04 -4.422,-23.85 -3.824,-17.87 -11.945,-39.04 -24.942,-61.53 -13.105,-22.4 -32.144,-45.86 -58.218,-65.83 -25.993,-19.78 -58.922,-36.66 -97.035,-43.59 -37.852,-6.68 -80.661,-5.65 -121.528,9.73 -10.394,3.31 -20.176,8.41 -30.222,13.21 -9.532,5.72 -19.555,11.01 -28.43,18.19 -9.422,6.45 -17.676,14.51 -26.301,22.29 -7.812,8.6 -16,17.04 -22.734,26.81 -13.813,19.13 -25.864,40.41 -33.172,63.81 -7.567,23.26 -11.633,47.98 -11.957,73.11 0.328,25.13 4.402,49.84 11.972,73.09 7.313,23.39 19.36,44.66 33.172,63.78 6.735,9.78 14.922,18.21 22.731,26.81 8.625,7.78 16.879,15.84 26.297,22.29 8.871,7.17 18.898,12.46 28.425,18.18 10.047,4.8 19.829,9.9 30.219,13.21 40.86,15.38 83.664,16.41 121.512,9.73 38.113,-6.92 71.043,-23.81 97.035,-43.59 26.078,-19.96 45.117,-43.42 58.227,-65.82 13,-22.49 21.121,-43.66 24.945,-61.54 2.535,-8.8 3.457,-16.88 4.422,-23.85 0.457,-3.48 1.019,-6.68 1.265,-9.64 0.102,-2.93 0.196,-5.62 0.282,-8.05 0.121,-4.59 0.218,-8.2 0.293,-10.92 0.035,-2.45 0.007,-3.71 -0.082,-3.71"
         style="fill:#17282f;fill-opacity:1;fill-rule:nonzero;stroke:none"
         id="path158" /><path
         d="m 883.125,2742.14 c 0.18,0.01 0.395,-2.26 0.641,-6.6 0.211,-4.88 0.48,-11.19 0.82,-19 0.316,-8.26 0.793,-18.37 0.219,-30.11 -0.176,-5.9 -0.36,-12.17 -0.555,-18.8 -0.066,-6.67 -0.484,-13.69 -1.285,-21.05 -1.414,-14.72 -2.402,-30.92 -5.438,-48.06 -1.394,-8.59 -2.484,-17.53 -4.265,-26.63 -1.949,-9.07 -3.953,-18.4 -6.004,-27.96 -9.145,-38.01 -21.805,-79.34 -40.293,-120.62 -18.559,-41.24 -40.465,-78.47 -62.66,-110.71 -11.641,-15.74 -22.371,-30.94 -33.895,-44.01 -5.652,-6.61 -10.797,-13.27 -16.324,-19.16 -5.531,-5.86 -10.852,-11.5 -15.941,-16.89 -9.903,-11 -20.071,-19.74 -28.555,-27.86 -8.43,-8.18 -16.211,-14.64 -22.668,-19.8 -6.086,-4.92 -10.996,-8.88 -14.801,-11.95 -3.418,-2.69 -5.262,-4.03 -5.375,-3.89 -0.113,0.14 1.516,1.76 4.711,4.7 3.637,3.26 8.324,7.46 14.141,12.67 6.234,5.39 13.793,12.04 22,20.4 8.257,8.28 18.199,17.16 27.875,28.27 4.984,5.43 10.191,11.11 15.609,17.01 5.414,5.93 10.449,12.61 15.996,19.24 11.309,13.11 21.832,28.31 33.285,44.01 21.821,32.16 43.43,69.17 61.844,110.09 18.348,40.96 31.043,81.91 40.379,119.61 2.113,9.48 4.176,18.73 6.18,27.72 1.847,9.02 3.015,17.89 4.492,26.41 3.203,17.01 4.394,33.1 6.039,47.72 0.914,7.31 1.453,14.29 1.644,20.92 0.336,6.6 0.653,12.84 0.95,18.71 0.851,11.68 0.675,21.75 0.668,29.99 0.066,7.81 0.117,14.11 0.156,18.99 0.094,4.35 0.23,6.64 0.41,6.64"
         style="fill:#17282f;fill-opacity:1;fill-rule:nonzero;stroke:none"
         id="path160" /><path
         d="M 3314.64,143.75 H 950.09 c -63.992,0 -115.871,53.66 -115.871,119.852 V 3877.95 c 0,66.2 51.879,119.86 115.871,119.86 h 2364.55 c 63.99,0 115.87,-53.66 115.87,-119.86 l 0.01,-3614.341 c 0,-66.199 -51.89,-119.859 -115.88,-119.859"
         style="fill:#17282f;fill-opacity:1;fill-rule:nonzero;stroke:none"
         id="path162" /><path
         d="m 2177.65,319.082 c 0,-59.711 -49.3,-108.113 -110.11,-108.113 -60.82,0 -110.11,48.402 -110.11,108.113 0,59.707 49.29,108.117 110.11,108.117 60.81,0 110.11,-48.41 110.11,-108.117"
         style="fill:#33535f;fill-opacity:1;fill-rule:nonzero;stroke:none"
         id="path164" /><path
         d="m 2398.38,3794.14 h -530.24 c -20.43,0 -36.98,17.13 -36.98,38.25 0,21.13 16.55,38.26 36.98,38.26 h 530.24 c 20.42,0 36.98,-17.13 36.98,-38.26 0,-21.12 -16.56,-38.25 -36.98,-38.25"
         style="fill:#33535f;fill-opacity:1;fill-rule:nonzero;stroke:none"
         id="path166" /><path
         d="m 913.844,504.242 h 2432.55 v 3218.61 H 913.844 Z"
         style="fill:#ffffff;fill-opacity:1;fill-rule:nonzero;stroke:none"
         id="path168" /><path
         d="M 3346.4,504.242 H 3242.63 V 3722.85 H 3346.4 V 504.242"
         style="fill:#f3f2f1;fill-opacity:1;fill-rule:nonzero;stroke:none"
         id="path170" /><path
         d="m 3294.52,2566.5 v 0 c -17.87,0 -32.35,14.48 -32.35,32.35 v 711.97 c 0,17.87 14.48,32.35 32.35,32.35 17.86,0 32.34,-14.48 32.34,-32.35 v -711.97 c 0,-17.87 -14.48,-32.35 -32.34,-32.35"
         style="fill:#dadbd8;fill-opacity:1;fill-rule:nonzero;stroke:none"
         id="path172" /><path
         d="M 3029.18,2990.38 H 1235.55 c -28.49,0 -51.59,23.09 -51.59,51.58 0,28.5 23.1,51.59 51.59,51.59 h 1793.63 c 28.5,0 51.59,-23.09 51.59,-51.59 0,-28.49 -23.09,-51.58 -51.59,-51.58"
         style="fill:#dadbd8;fill-opacity:1;fill-rule:nonzero;stroke:none"
         id="path174" /><path
         d="m 2753.32,3366.84 h -1128.3 c -28.49,0 -51.59,23.1 -51.59,51.59 v 0 c 0,28.49 23.1,51.59 51.59,51.59 h 1128.3 c 28.49,0 51.59,-23.1 51.59,-51.59 v 0 c 0,-28.49 -23.1,-51.59 -51.59,-51.59"
         style="fill:#f2575d;fill-opacity:1;fill-rule:nonzero;stroke:none"
         id="path176" /><path
         d="M 2774.5,2782.71 H 1490.24 c -28.49,0 -51.59,23.1 -51.59,51.59 v 0 c 0,28.49 23.1,51.58 51.59,51.58 H 2774.5 c 28.49,0 51.58,-23.09 51.58,-51.58 v 0 c 0,-28.49 -23.09,-51.59 -51.58,-51.59"
         style="fill:#dadbd8;fill-opacity:1;fill-rule:nonzero;stroke:none"
         id="path178" /><path
         d="m 2194.68,1877.4 h -988.09 c -28.49,0 -51.59,23.1 -51.59,51.59 v 0 c 0,28.49 23.1,51.59 51.59,51.59 h 988.09 c 28.49,0 51.59,-23.1 51.59,-51.59 v 0 c 0,-28.49 -23.1,-51.59 -51.59,-51.59"
         style="fill:#dadbd8;fill-opacity:1;fill-rule:nonzero;stroke:none"
         id="path180" /><path
         d="M 3000.22,2093.46 H 1206.59 c -28.49,0 -51.59,23.1 -51.59,51.59 v 0 c 0,28.49 23.1,51.59 51.59,51.59 h 1793.63 c 28.5,0 51.59,-23.1 51.59,-51.59 v 0 c 0,-28.49 -23.09,-51.59 -51.59,-51.59"
         style="fill:#dadbd8;fill-opacity:1;fill-rule:nonzero;stroke:none"
         id="path182" /><path
         d="M 3000.22,1397.51 H 1430.26 c -28.49,0 -51.58,23.09 -51.58,51.58 0,28.5 23.09,51.59 51.58,51.59 h 1569.96 c 28.5,0 51.59,-23.09 51.59,-51.59 0,-28.49 -23.09,-51.58 -51.59,-51.58"
         style="fill:#dadbd8;fill-opacity:1;fill-rule:nonzero;stroke:none"
         id="path184" /><path
         d="M 3000.22,1176.99 H 1206.59 c -28.49,0 -51.59,23.1 -51.59,51.59 0,28.49 23.1,51.59 51.59,51.59 h 1793.63 c 28.5,0 51.59,-23.1 51.59,-51.59 0,-28.49 -23.09,-51.59 -51.59,-51.59"
         style="fill:#dadbd8;fill-opacity:1;fill-rule:nonzero;stroke:none"
         id="path186" /><path
         d="M 3000.22,953.039 H 1206.59 c -28.49,0 -51.59,23.102 -51.59,51.591 0,28.49 23.1,51.59 51.59,51.59 h 1793.63 c 28.5,0 51.59,-23.1 51.59,-51.59 0,-28.489 -23.09,-51.591 -51.59,-51.591"
         style="fill:#dadbd8;fill-opacity:1;fill-rule:nonzero;stroke:none"
         id="path188" /><path
         d="m 1287.32,1449.09 c 0,-29.59 -23.99,-53.59 -53.59,-53.59 -29.59,0 -53.59,24 -53.59,53.59 0,29.6 24,53.59 53.59,53.59 29.6,0 53.59,-23.99 53.59,-53.59"
         style="fill:#f2575d;fill-opacity:1;fill-rule:nonzero;stroke:none"
         id="path190" /><path
         d="M 3000.22,2294.97 H 1430.26 c -28.49,0 -51.58,23.09 -51.58,51.58 v 0 c 0,28.5 23.09,51.59 51.58,51.59 h 1569.96 c 28.5,0 51.59,-23.09 51.59,-51.59 v 0 c 0,-28.49 -23.09,-51.58 -51.59,-51.58"
         style="fill:#dadbd8;fill-opacity:1;fill-rule:nonzero;stroke:none"
         id="path192" /><path
         d="m 1287.32,2346.55 c 0,-29.59 -23.99,-53.58 -53.59,-53.58 -29.59,0 -53.59,23.99 -53.59,53.58 0,29.6 24,53.59 53.59,53.59 29.6,0 53.59,-23.99 53.59,-53.59"
         style="fill:#f2575d;fill-opacity:1;fill-rule:nonzero;stroke:none"
         id="path194" /><path
         d="m 2950.09,624.902 h -402.47 c -45.4,0 -82.22,36.809 -82.22,82.219 0,45.41 36.82,82.219 82.22,82.219 h 402.47 c 45.41,0 82.22,-36.809 82.22,-82.219 0,-45.41 -36.81,-82.219 -82.22,-82.219"
         style="fill:#f2575d;fill-opacity:1;fill-rule:nonzero;stroke:none"
         id="path196" /><path
         d="M 876.574,4503.67 459.352,4294.39 c -31.192,-13.29 -51.438,-43.92 -51.438,-77.82 V 4021.4 c 0,-174.36 48.664,-347.15 148.777,-499.69 75.153,-114.51 174.825,-260.87 340.668,-344.55 h 74.86 c 184.611,56.3 322.411,206.39 406.661,334.75 100.11,152.55 148.77,325.33 148.77,499.7 v 204.96 c 0,33.9 -20.24,64.53 -51.44,77.82 l -475.27,202.51 c -21.182,9.03 -103.178,15.8 -124.366,6.77"
         style="fill:#f2575d;fill-opacity:1;fill-rule:nonzero;stroke:none"
         id="path198" /><path
         d="m 972.219,3177.16 h -74.86 C 731.516,3260.84 631.844,3407.2 556.691,3521.71 456.578,3674.25 407.914,3847.04 407.914,4021.4 v 195.17 c 0,33.9 20.246,64.53 51.438,77.82 l 417.222,209.28 c 7.063,3.01 20.879,4.26 36.953,4.26 32.141,0 73.293,-5.01 87.413,-11.03 l 475.27,-202.51 c 31.2,-13.29 51.44,-43.92 51.44,-77.82 v -204.96 c 0,-174.37 -48.66,-347.15 -148.77,-499.7 -84.25,-128.36 -222.05,-278.45 -406.661,-334.75"
         style="fill:#cc4341;fill-opacity:1;fill-rule:nonzero;stroke:none"
         id="path200" /><path
         d="m 859.762,4496.9 -475.27,-202.51 c -31.191,-13.29 -51.437,-43.92 -51.437,-77.83 V 4021.4 c 0,-174.36 48.664,-347.15 148.777,-499.69 84.246,-128.37 214.699,-260.54 415.527,-344.55 184.611,56.3 322.411,206.39 406.661,334.75 100.11,152.55 148.77,325.33 148.77,499.7 v 204.95 c 0,33.91 -20.24,64.54 -51.44,77.83 L 926.086,4496.9 c -21.188,9.03 -45.137,9.03 -66.324,0"
         style="fill:#f2575d;fill-opacity:1;fill-rule:nonzero;stroke:none"
         id="path202" /><path
         d="m 1451.26,4064.47 c 0.09,0 0.19,-0.77 0.31,-2.28 0.1,-1.83 0.22,-4.03 0.37,-6.71 0.24,-6.36 0.55,-14.98 0.95,-25.85 0.37,-11.23 0.96,-24.97 0.13,-40.92 -0.26,-8 -0.53,-16.53 -0.82,-25.56 -0.15,-4.53 -0.31,-9.19 -0.47,-13.96 -0.44,-4.76 -0.89,-9.65 -1.35,-14.65 -1.96,-20 -3.34,-42.01 -7.5,-65.31 -1.91,-11.66 -3.41,-23.82 -5.84,-36.18 -2.66,-12.32 -5.4,-24.99 -8.2,-37.98 -12.47,-51.65 -29.7,-107.8 -54.82,-163.88 -25.22,-56.04 -54.96,-106.64 -85.08,-150.47 -15.8,-21.4 -30.36,-42.09 -45.99,-59.87 -7.67,-8.99 -14.65,-18.06 -22.15,-26.07 -7.51,-7.99 -14.72,-15.66 -21.62,-22.99 -13.43,-14.99 -27.22,-26.91 -38.72,-37.97 -5.86,-5.42 -11.13,-10.65 -16.32,-15.11 -5.23,-4.34 -10.03,-8.32 -14.39,-11.94 -8.41,-6.89 -15.09,-12.35 -20.01,-16.38 -2.11,-1.66 -3.85,-3.02 -5.28,-4.15 -1.21,-0.92 -1.86,-1.35 -1.91,-1.28 -0.06,0.07 0.48,0.64 1.57,1.69 1.35,1.24 2.98,2.73 4.96,4.55 4.76,4.21 11.21,9.91 19.35,17.11 4.26,3.71 8.95,7.8 14.06,12.25 5.07,4.56 10.23,9.88 15.98,15.38 11.27,11.23 24.84,23.29 38.04,38.38 6.79,7.38 13.89,15.09 21.29,23.12 7.38,8.05 14.25,17.14 21.82,26.16 15.42,17.81 29.77,38.49 45.38,59.86 29.74,43.75 59.19,94.12 84.26,149.84 24.98,55.77 42.24,111.54 54.91,162.87 2.86,12.91 5.66,25.51 8.37,37.75 2.5,12.28 4.08,24.37 6.07,35.96 4.33,23.17 5.91,45.07 8.1,64.97 0.52,4.98 1.03,9.84 1.53,14.58 0.22,4.75 0.44,9.39 0.65,13.9 0.43,8.99 0.84,17.49 1.22,25.46 1.11,15.89 0.81,29.61 0.75,40.82 0.01,10.86 0.03,19.48 0.04,25.83 0.05,2.69 0.1,4.9 0.14,6.73 0.06,1.51 0.13,2.29 0.22,2.3"
         style="fill:#17282f;fill-opacity:1;fill-rule:nonzero;stroke:none"
         id="path204" /><path
         d="m 1081.19,3802.17 h -50.68 v 275.87 c 0,64.94 -52.826,117.76 -117.76,117.76 -64.934,0 -117.758,-52.82 -117.758,-117.76 v -275.87 h -50.687 v 275.87 c 0,92.88 75.57,168.45 168.445,168.45 92.88,0 168.44,-75.57 168.44,-168.45 v -275.87"
         style="fill:#f3f2f1;fill-opacity:1;fill-rule:nonzero;stroke:none"
         id="path206" /><path
         d="M 1081.64,3633.61 H 743.855 c -32.093,0 -58.109,26.02 -58.109,58.11 v 239.61 c 0,32.09 26.016,58.11 58.109,58.11 h 337.785 c 32.1,0 58.11,-26.02 58.11,-58.11 v -239.61 c 0,-32.09 -26.01,-58.11 -58.11,-58.11"
         style="fill:#ffffff;fill-opacity:1;fill-rule:nonzero;stroke:none"
         id="path208" /><path
         d="m 1081.64,3633.61 c -0.03,0.39 5.42,-0.05 15.12,2.6 9.4,2.62 23.92,9.58 33.72,26.05 4.93,8.06 8.05,18.44 8.03,29.93 -0.06,11.72 -0.14,24.42 -0.21,38.06 -0.12,27.36 -0.25,58.45 -0.39,92.79 -0.16,34.36 -0.33,71.96 -0.52,112.3 -1.19,19.42 -13.82,38.64 -32.98,46.92 -9.59,4.42 -19.86,5.23 -31.1,4.83 -11.08,-0.02 -22.3,-0.04 -33.66,-0.05 -90.939,-0.06 -190.865,-0.13 -295.755,-0.21 -12.532,-0.12 -24.957,-4.29 -34.598,-12.11 -9.59,-7.77 -16.75,-18.6 -19.402,-30.54 -1.43,-6 -1.672,-11.9 -1.567,-18.36 0,-6.34 -0.004,-12.66 -0.008,-18.94 -0.007,-12.59 -0.015,-25.06 -0.023,-37.43 -0.051,-49.47 -0.102,-97.19 -0.152,-142.66 0.949,-22.56 -3.77,-45.88 7.878,-63.73 10.579,-18.02 30.911,-28.26 50.598,-27.29 40.406,-0.11 78.063,-0.22 112.465,-0.32 68.543,-0.34 124.105,-0.63 162.844,-0.82 19,-0.21 33.86,-0.38 44.28,-0.49 4.85,-0.11 8.66,-0.2 11.51,-0.26 2.59,-0.09 3.92,-0.18 3.92,-0.27 0,-0.09 -1.33,-0.18 -3.92,-0.26 -2.85,-0.07 -6.66,-0.15 -11.51,-0.26 -10.42,-0.12 -25.28,-0.28 -44.28,-0.49 -38.739,-0.2 -94.301,-0.48 -162.844,-0.83 -34.402,-0.09 -72.059,-0.2 -112.465,-0.32 -20.762,-1.15 -43.109,9.8 -54.523,29.26 -5.93,9.48 -8.793,21.04 -8.7,32.42 -0.015,11.07 -0.035,22.3 -0.05,33.66 -0.047,45.47 -0.098,93.19 -0.153,142.66 -0.007,12.37 -0.015,24.84 -0.023,37.43 0,6.28 -0.004,12.6 -0.008,18.94 -0.121,6.2 0.121,13.12 1.691,19.56 2.907,13.06 10.708,24.92 21.2,33.41 10.531,8.55 24.156,13.14 37.84,13.25 104.89,-0.07 204.816,-0.14 295.755,-0.2 11.36,-0.02 22.58,-0.04 33.66,-0.05 10.8,0.39 22.91,-0.52 32.97,-5.35 20.7,-9.04 34.23,-29.85 35.42,-50.79 0.33,-40.72 -0.09,-78.16 -0.11,-112.61 -0.14,-34.34 -0.27,-65.43 -0.38,-92.79 -0.08,-13.64 -0.15,-26.34 -0.22,-38.06 -0.12,-11.94 -3.54,-22.73 -8.77,-30.98 -10.43,-16.89 -25.53,-23.66 -35.19,-26.01 -9.97,-2.37 -15.39,-1.59 -15.39,-1.59"
         style="fill:#17282f;fill-opacity:1;fill-rule:nonzero;stroke:none"
         id="path210" /><path
         d="m 947.594,3802.25 c 8.879,8.95 14.375,21.23 14.375,34.86 0,27.57 -22.356,49.93 -49.934,49.93 -27.574,0 -49.93,-22.36 -49.93,-49.93 0,-22.82 15.403,-41.85 36.309,-47.81 l -10.734,-47.44 h 47.531 l -9.555,47.44 c 8.422,2.4 15.949,6.92 21.938,12.95"
         style="fill:#f2575d;fill-opacity:1;fill-rule:nonzero;stroke:none"
         id="path212" /><path
         d="m 4044.83,3445.5 v -405.25 c 0.87,-70.08 11.17,-180.06 -99.7,-176.38 -95.96,10.45 -121.41,101.28 -122.16,166.69 -0.35,31.02 -0.71,56.89 -0.96,60.08 0,0 -105.03,8.56 -113.9,112.31 -4.28,50.13 -4.7,154.12 -3.99,248.19 0.77,101.04 79.12,184.5 179.89,191.86 l 10.01,0.73 c 108.5,1.58 152.23,-89.73 150.81,-198.23"
         style="fill:#f9a78d;fill-opacity:1;fill-rule:nonzero;stroke:none"
         id="path214" /><path
         d="m 3822.01,3090.64 c 0,0 65.74,0.94 132.29,49.84 0,0 -27.44,-78.25 -131.74,-76.47 l -0.55,26.63"
         style="fill:#f57f62;fill-opacity:1;fill-rule:nonzero;stroke:none"
         id="path216" /><path
         d="m 3881.5,3408.63 c 2.06,-2.1 14.04,7.54 31.42,8.01 17.36,0.73 30.36,-8.06 32.19,-5.82 0.9,0.99 -1.25,4.83 -6.92,8.81 -5.58,3.96 -15.01,7.7 -25.84,7.33 -10.82,-0.39 -19.81,-4.74 -24.93,-9.08 -5.23,-4.36 -6.94,-8.32 -5.92,-9.25"
         style="fill:#17282f;fill-opacity:1;fill-rule:nonzero;stroke:none"
         id="path218" /><path
         d="m 3881.23,3359.46 c 0.28,-7.43 6.8,-13.32 14.56,-13.17 7.74,0.15 13.81,6.28 13.53,13.7 -0.28,7.43 -6.8,13.32 -14.55,13.18 -7.75,-0.15 -13.82,-6.29 -13.54,-13.71"
         style="fill:#17282f;fill-opacity:1;fill-rule:nonzero;stroke:none"
         id="path220" /><path
         d="m 3837.95,3287.72 c 0.01,0.91 -10.03,1.9 -26.25,2.78 -4.11,0.12 -8.03,0.65 -8.92,3.38 -1.17,2.87 0.21,7.39 1.84,12.28 3.12,10.14 6.37,20.77 9.79,31.91 13.51,45.4 22.97,82.61 21.14,83.13 -1.84,0.53 -14.28,-35.84 -27.78,-81.24 -3.24,-11.18 -6.33,-21.85 -9.27,-32.05 -1.2,-4.75 -3.47,-10.19 -0.94,-16.15 1.31,-2.96 4.47,-4.96 7.13,-5.47 2.67,-0.61 4.97,-0.48 6.99,-0.46 16.24,0.32 26.28,0.97 26.27,1.89"
         style="fill:#17282f;fill-opacity:1;fill-rule:nonzero;stroke:none"
         id="path222" /><path
         d="m 3888.89,3482.59 c 1.68,-3.85 15.59,-0.95 32.26,-1.8 16.68,-0.51 30.36,-4.54 32.29,-0.83 0.85,1.77 -1.74,5.33 -7.4,8.76 -5.62,3.44 -14.4,6.45 -24.4,6.87 -9.99,0.4 -18.95,-1.89 -24.78,-4.86 -5.88,-2.97 -8.7,-6.3 -7.97,-8.14"
         style="fill:#17282f;fill-opacity:1;fill-rule:nonzero;stroke:none"
         id="path224" /><path
         d="m 3723.81,3456.56 c 1.82,-3.15 15.39,0.34 31.82,0.85 16.44,0.81 30.08,-1.6 31.82,1.69 0.76,1.56 -1.95,4.38 -7.68,6.88 -5.68,2.5 -14.46,4.4 -24.31,4.02 -9.86,-0.41 -18.57,-3.01 -24.17,-5.96 -5.66,-2.95 -8.29,-5.98 -7.48,-7.48"
         style="fill:#17282f;fill-opacity:1;fill-rule:nonzero;stroke:none"
         id="path226" /><path
         d="m 3566.35,3544.28 c 1.13,4.17 4.16,7.61 7.89,9.81 8.12,4.79 17.48,4.16 26.52,4.3 27.54,0.44 54.86,8.85 78.03,23.72 10.84,15.64 23.05,30.34 36.31,44 31.44,32.43 57.32,54.5 84.09,65.27 34.62,13.94 92.52,19.58 128.61,10.12 36.1,-9.48 68.52,-38.76 73.54,-75.75 20.25,17.12 50.64,16.97 75.29,7.06 l 0.62,0.27 c 27.46,-9.79 43.06,-38.8 51.16,-66.8 8.11,-28 11.56,-57.95 26.39,-83.04 3.1,-5.25 6.78,-11.54 4.08,-17 -2.1,-4.22 -7.46,-5.96 -12.13,-5.28 -4.66,0.68 -8.8,3.26 -12.78,5.78 3.06,-7.33 6.12,-14.66 9.19,-21.99 -9.94,-1.74 -20.22,-0.94 -29.87,1.99 -5.84,-26.19 -12.79,-56.09 -19.53,-73.84 -11.48,0.03 -21.99,-0.79 -29.07,-7.15 -9.61,-8.65 -13.91,-24.92 -29.9,-18.74 -8.13,3.14 -15.55,20.2 -18.27,28.49 -18.07,54.99 -24.06,113.89 -17.54,171.39 -11.37,12.13 -25.1,22.04 -40.19,29.01 l 1.23,-1.1 c -28.99,10.07 -61.79,19.97 -89.3,6.36 -21.34,-10.56 -33.88,-32.7 -49.84,-50.37 -30.24,-33.49 -71.02,-51.69 -116.1,-53.63 -1.53,-29.21 0.92,-70.5 -0.61,-99.71 l -24.58,46.79 -0.02,-0.23 c -2.01,3.42 -3.67,6.88 -5.28,10.34 l -0.55,1.05 v 0.13 c -2.56,5.56 -4.99,11.12 -8.22,16.62 l -0.28,-0.25 c -15.83,-13.96 -39.15,7.39 -26.67,24.41 2.48,3.37 5.44,6.38 8.83,8.86 -7.24,-6.79 -18.02,-10.04 -27.51,-7.13 -9.49,2.92 -16.84,12.52 -16.02,22.41 0.56,6.75 5.39,12.78 11.48,15.45 -12.78,-0.98 -25.86,1.8 -37,8.16 -7.31,4.17 -14.48,11.03 -12,20.22"
         style="fill:#17282f;fill-opacity:1;fill-rule:nonzero;stroke:none"
         id="path228" /><path
         d="m 3968.68,3613.84 c -0.21,-0.27 4.35,-2.75 10.41,-9.52 6.01,-6.75 12.75,-18.49 15.93,-34.46 1.63,-7.94 2.66,-16.82 2.65,-26.38 0.05,-9.55 -0.72,-19.79 -1.45,-30.57 -0.7,-10.79 -1.47,-22.18 -0.78,-34.04 0.34,-5.91 1.05,-11.94 2.34,-17.95 1.3,-5.91 2.86,-12.33 7.32,-17.42 3.56,-4.14 9.5,-5.98 14.65,-4.92 5.18,0.92 9.8,3.68 13.18,7.44 6.67,7.8 8.34,17.68 10,26.39 l -2.18,-0.26 c 3.56,-7.83 7.21,-15.57 12.62,-21.74 5.33,-6.22 12.7,-10.33 20.19,-11 3.74,-0.33 7.5,0.27 10.7,1.88 3.27,1.59 5.65,4.3 7.27,7.16 1.56,2.91 2.37,6.11 2.21,9.2 -0.18,3.08 -1.38,6 -3.33,8.07 l -1.1,-0.98 c 8,-9.12 16.45,-14.01 22.29,-16.73 2.95,-1.36 5.31,-2.17 6.91,-2.68 1.61,-0.48 2.45,-0.68 2.47,-0.61 0.03,0.07 -0.78,0.39 -2.34,0.99 -1.54,0.64 -3.83,1.56 -6.7,3.01 -5.66,2.91 -13.84,7.93 -21.52,16.98 l -1.09,-0.99 c 3.49,-3.69 3.69,-10.19 0.68,-15.42 -1.51,-2.57 -3.69,-4.98 -6.57,-6.33 -2.86,-1.41 -6.29,-1.93 -9.7,-1.58 -6.88,0.68 -13.75,4.54 -18.74,10.45 -5.1,5.9 -8.64,13.43 -12.16,21.27 l -1.49,3.33 -0.69,-3.59 c -1.66,-8.7 -3.43,-18.19 -9.52,-25.22 -3.02,-3.37 -7.25,-5.87 -11.79,-6.66 -4.55,-0.87 -9.35,0.62 -12.45,4.17 -3.9,4.4 -5.5,10.48 -6.76,16.3 -1.26,5.87 -1.97,11.76 -2.33,17.58 -0.71,11.66 0,22.98 0.64,33.75 0.67,10.78 1.37,21.07 1.23,30.74 -0.08,9.68 -1.21,18.68 -2.98,26.72 -3.45,16.19 -10.58,28.07 -16.91,34.73 -6.39,6.7 -11.11,8.89 -11.11,8.89"
         style="fill:#33535f;fill-opacity:1;fill-rule:nonzero;stroke:none"
         id="path230" /><path
         d="m 3647.62,3512.86 0.84,-0.71 c 0.7,-0.51 1.55,-1.13 2.59,-1.89 1.13,-0.85 2.57,-1.84 4.39,-2.82 1.8,-1.03 3.84,-2.28 6.32,-3.32 9.64,-4.59 25.09,-9.13 44.42,-8 19.14,1.08 42.12,7.86 62.64,23.13 20.73,14.91 38.93,36.88 53.81,62.02 7.54,12.57 13.7,25.46 20.48,37.36 6.74,11.9 14.18,22.9 23.19,31.59 8.91,8.73 19.25,15.19 29.9,18.15 5.31,1.58 10.67,1.93 15.77,1.81 5.12,-0.27 9.97,-1.3 14.44,-2.77 8.95,-3 16.16,-7.95 21.64,-13.02 5.5,-5.14 9.18,-10.55 11.71,-15.2 4.72,-9.54 4.98,-15.66 5.36,-15.56 l -0.08,1.09 c -0.14,0.86 -0.3,1.9 -0.49,3.17 -0.51,2.79 -1.71,6.82 -3.95,11.73 -2.44,4.79 -6.08,10.4 -11.61,15.75 -5.52,5.29 -12.84,10.47 -22.02,13.67 -4.59,1.56 -9.59,2.68 -14.9,3.01 -5.28,0.19 -10.9,-0.15 -16.4,-1.74 -11.07,-2.99 -21.77,-9.6 -30.93,-18.49 -9.27,-8.85 -16.88,-20.04 -23.7,-32.02 -6.86,-11.98 -13.02,-24.84 -20.5,-37.28 -14.77,-24.96 -32.7,-46.68 -53.04,-61.46 -20.14,-15.13 -42.57,-21.93 -61.43,-23.22 -19,-1.34 -34.27,2.87 -43.92,7.14 -9.72,4.33 -14.34,8.17 -14.53,7.88"
         style="fill:#33535f;fill-opacity:1;fill-rule:nonzero;stroke:none"
         id="path232" /><path
         d="m 3638.18,3558.46 c -0.09,-0.14 1.24,-1.06 3.72,-2.59 2.46,-1.58 6.22,-3.53 11.02,-5.6 4.79,-2.11 10.72,-4.08 17.45,-5.73 6.75,-1.53 14.32,-2.66 22.31,-2.96 8.01,-0.21 15.63,0.44 22.47,1.53 6.82,1.21 12.87,2.8 17.78,4.6 4.92,1.76 8.8,3.46 11.36,4.88 2.57,1.37 3.95,2.2 3.88,2.35 -0.2,0.41 -5.94,-2.54 -15.78,-5.6 -4.9,-1.57 -10.88,-2.95 -17.59,-4.02 -6.73,-0.95 -14.2,-1.52 -22.04,-1.31 -7.83,0.29 -15.24,1.33 -21.9,2.71 -6.62,1.5 -12.5,3.27 -17.3,5.14 -9.62,3.69 -15.15,7 -15.38,6.6"
         style="fill:#33535f;fill-opacity:1;fill-rule:nonzero;stroke:none"
         id="path234" /><path
         d="m 3723.03,3408.63 c 2.06,-2.1 14.04,7.54 31.43,8.01 17.35,0.72 30.36,-8.06 32.18,-5.82 0.9,0.99 -1.24,4.83 -6.91,8.81 -5.58,3.96 -15.02,7.7 -25.84,7.33 -10.82,-0.39 -19.82,-4.74 -24.94,-9.08 -5.23,-4.36 -6.93,-8.32 -5.92,-9.25"
         style="fill:#17282f;fill-opacity:1;fill-rule:nonzero;stroke:none"
         id="path236" /><path
         d="m 3740.75,3359.45 c 0.28,-7.42 6.8,-13.31 14.56,-13.16 7.75,0.15 13.81,6.28 13.53,13.7 -0.27,7.43 -6.79,13.32 -14.54,13.18 -7.76,-0.15 -13.83,-6.29 -13.55,-13.72"
         style="fill:#17282f;fill-opacity:1;fill-rule:nonzero;stroke:none"
         id="path238" /><path
         d="m 4042.11,3367.98 c 1.72,0.89 69.73,26.28 72.64,-44.8 2.91,-71.07 -69.04,-59.33 -69.25,-57.3 -0.21,2.03 -3.39,102.1 -3.39,102.1"
         style="fill:#f9a78d;fill-opacity:1;fill-rule:nonzero;stroke:none"
         id="path240" /><path
         d="m 4066.11,3293.7 c 0.3,0.24 1.27,-0.82 3.4,-1.69 2.08,-0.85 5.62,-1.35 9.27,0.19 7.39,3.06 13.23,15.24 13.05,28.06 -0.09,6.48 -1.7,12.58 -4.2,17.59 -2.38,5.11 -5.89,8.6 -9.7,9.12 -3.8,0.71 -6.38,-1.66 -7.17,-3.69 -0.87,-2.03 -0.36,-3.43 -0.73,-3.57 -0.19,-0.18 -1.57,1.13 -1.12,4.09 0.23,1.42 1,3.14 2.61,4.57 1.65,1.45 4.13,2.27 6.77,2.09 5.5,-0.16 10.64,-5 13.39,-10.49 3.05,-5.51 5.01,-12.36 5.11,-19.63 0.13,-14.35 -6.66,-28.05 -16.81,-31.44 -4.95,-1.51 -9.18,-0.17 -11.4,1.42 -2.28,1.66 -2.71,3.24 -2.47,3.38"
         style="fill:#f57f62;fill-opacity:1;fill-rule:nonzero;stroke:none"
         id="path242" /><path
         d="m 3888.62,3272.97 c 0.59,-0.1 0.61,-4.17 -1.86,-10.18 -2.47,-5.92 -7.87,-13.62 -16.35,-18.97 -8.42,-5.44 -17.76,-7.16 -24.23,-6.5 -6.53,0.57 -10.07,2.74 -9.85,3.28 0.25,0.81 4.01,0 9.88,0.4 5.86,0.32 13.87,2.36 21.39,7.21 7.58,4.78 12.79,11.22 15.88,16.26 3.07,5.07 4.34,8.7 5.14,8.5"
         style="fill:#17282f;fill-opacity:1;fill-rule:nonzero;stroke:none"
         id="path244" /><path
         d="m 4246.68,461.332 21.24,-240.363 75.12,-185.5667 c 5.41,-13.371 -2.35,-28.26167 -16.92,-32.43355 -8.15,-2.328125 -16.93,-0.84766 -23.67,4.05078 C 4259.54,38.2422 4104.9,152.992 4103.17,167.93 c -2.23,19.359 -41.65,255.699 -41.65,255.699 l 185.16,37.703"
         style="fill:#33535f;fill-opacity:1;fill-rule:nonzero;stroke:none"
         id="path246" /><path
         d="m 4326.12,2.96875 -227.2,192.35125 2.23,-17.808 c 1.53,-9.742 1.7,-15.032 8.51,-21.11 18.22,-16.281 71.47,-66.1325 190.37,-153.45278 6.92,-5.07813 17.77,-2.589845 26.09,0.01953"
         style="fill:#17282f;fill-opacity:1;fill-rule:nonzero;stroke:none"
         id="path248" /><path
         d="m 4143.63,270.27 c 6.86,-3.52 9.97,-12.399 6.52,-18.989 -3.46,-6.59 -13.04,-9.64 -19.96,-6.242 -6.93,3.402 -11.02,13.961 -6.8,20.141 4.22,6.179 15.68,9.191 21.53,4.332"
         style="fill:#ffffff;fill-opacity:1;fill-rule:nonzero;stroke:none"
         id="path250" /><path
         d="m 4255.97,101.949 c 1.52,-0.519 5.86,12.61 20.27,20.891 14.14,8.672 28.62,6.699 28.78,8.211 0.15,0.609 -3.29,2.148 -9.35,2.347 -6.01,0.231 -14.55,-1.418 -22.44,-6.078 -7.87,-4.691 -13.13,-11.23 -15.49,-16.429 -2.42,-5.231 -2.42,-8.809 -1.77,-8.942"
         style="fill:#17282f;fill-opacity:1;fill-rule:nonzero;stroke:none"
         id="path252" /><path
         d="m 4277.77,71.6406 c 1.33,-0.9101 8.64,7.6992 21.44,12.5703 12.68,5.1407 24.33,3.9688 24.57,5.5079 0.6,1.3007 -12.25,5.1601 -26.75,-0.6172 -14.55,-5.6328 -20.66,-16.9414 -19.26,-17.461"
         style="fill:#17282f;fill-opacity:1;fill-rule:nonzero;stroke:none"
         id="path254" /><path
         d="m 4217.5,139.742 c 1.32,-1.023 12.49,12.278 31.68,21.5 19.05,9.488 37.04,10.457 36.91,12.067 0.27,1.32 -19.06,2.761 -39.51,-7.379 -20.55,-9.93 -30.39,-25.641 -29.08,-26.188"
         style="fill:#17282f;fill-opacity:1;fill-rule:nonzero;stroke:none"
         id="path256" /><path
         d="m 4204.54,212.301 c 0.85,-1.371 14.32,5.57 32.59,8.031 18.23,2.688 33.27,-0.242 33.65,1.297 0.57,1.242 -14.88,6.781 -34.49,3.941 -19.63,-2.691 -32.68,-12.238 -31.75,-13.269"
         style="fill:#17282f;fill-opacity:1;fill-rule:nonzero;stroke:none"
         id="path258" /><path
         d="m 4196.41,282.711 c 0.94,-1.309 14.21,8.098 33.68,9.199 19.44,1.512 33.99,-6.031 34.73,-4.609 0.36,0.551 -2.76,3.281 -9,5.879 -6.2,2.621 -15.66,4.699 -26.13,4.019 -10.47,-0.73 -19.52,-4.039 -25.26,-7.457 -5.78,-3.422 -8.46,-6.543 -8.02,-7.031"
         style="fill:#17282f;fill-opacity:1;fill-rule:nonzero;stroke:none"
         id="path260" /><path
         d="m 4228.12,305.27 c 0.33,0.031 0.54,3.312 -0.67,9.101 -1.22,5.758 -3.98,14.129 -10.36,23 -3.26,4.18 -6.77,9.621 -14.25,12.07 -3.72,1.239 -8.93,0.098 -11.6,-3.378 -2.65,-3.391 -3.15,-7.422 -2.81,-11.231 1.99,-15.203 17.55,-28.543 36.02,-28.91 18.5,-0.063 33.96,11.41 39.72,25.277 1.2,3.563 1.82,7.84 -0.61,11.703 -2.41,3.887 -7.78,5 -11.37,4.047 -7.46,-1.82 -11.77,-6.398 -15.88,-9.89 -8.04,-7.52 -12.69,-15.047 -15.31,-20.368 -2.62,-5.359 -3.29,-8.582 -2.98,-8.679 0.96,-0.543 5.11,12.418 21.03,26.328 4.04,3.242 8.67,7.281 14.07,8.301 2.63,0.519 5.03,-0.25 6.2,-2.172 1.2,-1.84 1,-4.899 -0.07,-7.707 -4.91,-11.371 -19.07,-21.821 -34.71,-21.543 -15.56,0.16 -29.23,11.91 -30.95,24.121 -0.36,2.949 0.14,6 1.62,7.922 1.45,1.89 3.91,2.609 6.36,1.949 5.18,-1.379 9.08,-6.09 12.28,-10.012 12.74,-16.539 13.17,-30.289 14.27,-29.929"
         style="fill:#17282f;fill-opacity:1;fill-rule:nonzero;stroke:none"
         id="path262" /><path
         d="m 3641.15,448.93 9.47,-203.551 c 0,0 -216.92,-77.41 -219.07,-115.188 l 420.51,3.079 -0.91,317.73 -210,-2.07"
         style="fill:#33535f;fill-opacity:1;fill-rule:nonzero;stroke:none"
         id="path264" /><path
         d="m 3780.5,263.461 c 8.16,-2.039 13.85,-10.59 12.03,-18.34 -1.83,-7.742 -11.04,-13.262 -19.23,-11.359 -8.19,1.89 -15.36,11.968 -12.63,19.48 2.74,7.5 13.93,13.418 21.4,9.727"
         style="fill:#dadbd8;fill-opacity:1;fill-rule:nonzero;stroke:none"
         id="path266" /><path
         d="m 3852.06,133.27 -1.43,32.019 -402.64,-14.918 c 0,0 -18.66,-7.801 -16.44,-20.18 l 420.51,3.079"
         style="fill:#17282f;fill-opacity:1;fill-rule:nonzero;stroke:none"
         id="path268" /><path
         d="m 3643.78,247.34 c 0.09,-1.93 10.36,-2.731 20.52,-8.86 10.32,-5.89 15.6,-14.21 17.48,-13.429 1.89,0.39 -1.27,11.898 -13.7,19.129 -12.36,7.32 -24.76,4.929 -24.3,3.16"
         style="fill:#17282f;fill-opacity:1;fill-rule:nonzero;stroke:none"
         id="path270" /><path
         d="m 3599.82,229.871 c -0.45,-1.879 8.47,-5.09 15.51,-13.211 7.29,-7.91 9.12,-16.73 11.17,-16.629 1.93,-0.289 3.26,11.032 -5.7,20.961 -8.86,10 -20.95,10.719 -20.98,8.879"
         style="fill:#17282f;fill-opacity:1;fill-rule:nonzero;stroke:none"
         id="path272" /><path
         d="m 3575.18,180.059 c 1.87,-0.387 4.65,9.273 -0.71,19.8 -5.28,10.571 -15,14.672 -15.85,13.063 -1.15,-1.602 5.13,-7.231 9.39,-15.942 4.47,-8.609 5.13,-16.738 7.17,-16.921"
         style="fill:#17282f;fill-opacity:1;fill-rule:nonzero;stroke:none"
         id="path274" /><path
         d="m 3647.1,293.949 c 0.88,-1.75 10.27,0.981 21.89,0.321 11.62,-0.43 20.68,-4.028 21.74,-2.36 1.18,1.399 -7.7,8.481 -21.39,9.07 -13.68,0.692 -23.26,-5.519 -22.24,-7.031"
         style="fill:#17282f;fill-opacity:1;fill-rule:nonzero;stroke:none"
         id="path276" /><path
         d="m 3567.95,1910.43 c 0.24,-11.79 48.85,-1638.5 48.85,-1638.5 h 259.92 l 52.66,1391.54 c 0,0 61.48,-727.579 61.48,-743.29 0,-15.719 54.25,-656.078 54.25,-656.078 l 240.98,18.48 -15.79,1465.078 -29.45,214.81 -672.9,-52.04"
         style="fill:#17282f;fill-opacity:1;fill-rule:nonzero;stroke:none"
         id="path278" /><path
         d="m 3956.41,1714.96 c 0.12,-0.33 -3.65,-1.8 -10.55,-4.17 -6.9,-2.38 -16.94,-5.66 -29.35,-9.6 l -2.36,-0.75 -0.17,2.3 c -1.45,19.57 -3.08,45.74 -4.61,74.42 -1.65,31.1 -2.86,59.25 -3.48,79.65 -0.31,10.19 -0.47,18.45 -0.47,24.16 0.01,5.71 0.18,8.87 0.53,8.89 0.36,0.01 0.86,-3.12 1.47,-8.81 0.61,-5.68 1.33,-13.91 2.1,-24.09 1.55,-20.35 3.34,-48.48 4.99,-79.58 1.52,-28.68 2.67,-54.87 3.31,-74.48 l -2.53,1.55 c 12.56,3.54 22.78,6.33 29.89,8.15 7.11,1.82 11.11,2.68 11.23,2.36"
         style="fill:#33535f;fill-opacity:1;fill-rule:nonzero;stroke:none"
         id="path280" /><path
         d="m 3936.68,1884.12 c -0.16,0.22 0.84,1.31 3.45,2.13 2.57,0.83 6.9,1.06 11.48,-0.93 4.48,-1.75 9.44,-6.9 8.7,-13.38 -0.53,-6.11 -5.51,-12.76 -13.83,-14.39 -8.35,-1.36 -15.79,2.91 -19.16,8.16 -3.68,5.47 -2.35,11.75 0.21,15.44 2.56,3.87 6.08,5.92 8.59,6.76 2.56,0.85 4.09,0.71 4.14,0.45 0.39,-0.68 -5.86,-1.86 -9.51,-8.72 -1.72,-3.28 -2.24,-7.89 0.62,-11.74 2.67,-3.84 8.52,-6.83 14.1,-5.85 5.53,0.99 9.58,5.89 10.12,10.3 0.74,4.54 -2.29,8.27 -5.73,10.12 -7.3,3.92 -13.01,0.95 -13.18,1.65"
         style="fill:#33535f;fill-opacity:1;fill-rule:nonzero;stroke:none"
         id="path282" /><path
         d="m 4055.99,1867.44 c -1.41,-0.13 -3.38,6.92 -4.39,15.75 -1.02,8.83 -0.7,16.09 0.72,16.22 1.41,0.13 3.38,-6.92 4.39,-15.75 1.02,-8.83 0.7,-16.09 -0.72,-16.22"
         style="fill:#33535f;fill-opacity:1;fill-rule:nonzero;stroke:none"
         id="path284" /><path
         d="m 4074.02,1869.07 c -1.42,0 -2.61,7.51 -2.66,16.78 -0.05,9.27 1.06,16.79 2.48,16.8 1.42,0 2.61,-7.5 2.66,-16.78 0.05,-9.27 -1.06,-16.79 -2.48,-16.8"
         style="fill:#33535f;fill-opacity:1;fill-rule:nonzero;stroke:none"
         id="path286" /><path
         d="m 3760.71,1857.85 c -1.41,-0.14 -3.61,8.31 -4.91,18.88 -1.3,10.57 -1.21,19.24 0.2,19.38 1.42,0.14 3.61,-8.31 4.91,-18.88 1.3,-10.57 1.21,-19.24 -0.2,-19.38"
         style="fill:#33535f;fill-opacity:1;fill-rule:nonzero;stroke:none"
         id="path288" /><path
         d="m 3782.55,1856.29 c -1.26,-0.45 -5.86,8.19 -6.35,19.78 -0.57,11.6 3.23,20.54 4.52,20.19 1.45,-0.31 0.07,-9.17 0.62,-20 0.44,-10.83 2.62,-19.56 1.21,-19.97"
         style="fill:#33535f;fill-opacity:1;fill-rule:nonzero;stroke:none"
         id="path290" /><path
         d="m 3700.34,1878.02 c 0.31,-0.05 -0.01,-2.6 -0.87,-7.17 -0.78,-4.58 -2.52,-11.13 -5.22,-19.07 -5.34,-15.88 -15.71,-37.21 -32.19,-57.97 -16.56,-20.72 -35.72,-36.46 -50.77,-46.18 -7.52,-4.87 -13.86,-8.5 -18.46,-10.66 -4.55,-2.22 -7.13,-3.32 -7.29,-3.08 -0.42,0.63 9.42,5.84 23.76,16.06 14.34,10.18 32.74,25.93 48.99,46.26 16.16,20.36 26.79,41.06 32.85,56.49 6.11,15.45 8.4,25.47 9.2,25.32"
         style="fill:#33535f;fill-opacity:1;fill-rule:nonzero;stroke:none"
         id="path292" /><path
         d="m 4262.34,1768.4 c 0.03,-0.25 -2.76,-0.77 -7.88,-1.16 -5.11,-0.4 -12.59,-0.48 -21.76,0.38 -18.24,1.6 -43.69,8.06 -66.58,23.15 -22.89,15.1 -37.29,34.94 -44.36,50.03 -3.62,7.58 -5.73,13.99 -6.81,18.47 -1.09,4.48 -1.35,7.02 -1.07,7.07 0.82,0.19 3.03,-9.79 10.85,-24.32 7.68,-14.46 22.04,-33.35 44.14,-47.93 22.1,-14.57 46.53,-21.28 64.25,-23.58 17.86,-2.4 29.19,-1.35 29.22,-2.11"
         style="fill:#33535f;fill-opacity:1;fill-rule:nonzero;stroke:none"
         id="path294" /><path
         d="m 3838.89,944.629 c -0.33,-1.098 -43.41,8.211 -96.21,20.801 -52.82,12.59 -95.35,23.691 -95.02,24.789 0.33,1.101 43.4,-8.207 96.21,-20.797 52.81,-12.59 95.35,-23.692 95.02,-24.793"
         style="fill:#33535f;fill-opacity:1;fill-rule:nonzero;stroke:none"
         id="path296" /><path
         d="m 4257.69,1003.83 c 0.62,-0.99 -36.87,-20.58 -83.73,-43.728 -46.87,-23.161 -85.36,-41.122 -85.98,-40.122 -0.61,1 36.87,20.579 83.74,43.739 46.86,23.152 85.35,41.111 85.97,40.111"
         style="fill:#33535f;fill-opacity:1;fill-rule:nonzero;stroke:none"
         id="path298" /><path
         d="m 3441.76,2461.26 35.54,-44.43 v 76.45 h 111.95 c 0,0 12.44,-175.08 9.78,-212.39 -0.94,-13.06 -6.66,-34.62 -13.7,-57.11 -14.61,-46.64 -73.47,-61.23 -108.53,-27.18 -11.77,11.44 -23.75,24.45 -35.04,38.97 -49.76,63.98 -132.43,219.81 -132.43,219.81 l 86.22,52.08 46.21,-46.2"
         style="fill:#f9a78d;fill-opacity:1;fill-rule:nonzero;stroke:none"
         id="path300" /><path
         d="m 3434.68,2469.47 c -0.55,-0.5 5.22,-7.8 14.63,-19.53 9.43,-11.71 22.53,-27.84 37.48,-45.29 14.98,-17.43 29.08,-32.8 40.05,-43.22 10.9,-10.49 18.6,-15.94 19.02,-15.41 0.5,0.61 -6.25,6.96 -16.36,18.02 -10.19,10.98 -23.77,26.65 -38.72,44.04 -29.61,35 -54.83,62.56 -56.1,61.39"
         style="fill:#f57f62;fill-opacity:1;fill-rule:nonzero;stroke:none"
         id="path302" /><path
         d="m 3697.17,2999.24 118.06,46.3 217.5,12.31 102.22,-38.87 -140.08,-77.79 -120.78,4.43 -176.92,53.62"
         style="fill:#f9a78d;fill-opacity:1;fill-rule:nonzero;stroke:none"
         id="path304" /><path
         d="m 3557.91,1888.18 c 10.68,-1.84 723.29,-32.1 723.29,-32.1 l -25.03,640.74 -2.05,125.81 -40.48,381.11 c 0,0 -106.52,36.62 -160.86,54.11 0,0 -57.2,-59.62 -165.96,-58 -106.32,1.57 -128.53,25.54 -128.53,25.54 l -148.65,-56.99 c 0,0 -105.7,-37.89 -123.89,-84.67 -17.7,-45.52 -50.14,-305.52 -50.14,-305.52 h 154.08 l -2.92,-459.3 -28.86,-230.73"
         style="fill:#33535f;fill-opacity:1;fill-rule:nonzero;stroke:none"
         id="path306" /><path
         d="m 4134.95,2534.07 -106.9,47.74 -22.09,161.53 208,8.03 v -149.96 l -79.01,-67.34"
         style="fill:#263f48;fill-opacity:1;fill-rule:nonzero;stroke:none"
         id="path308" /><path
         d="m 4211.16,2697.52 c 0,-1.34 -44.42,-2.43 -99.21,-2.43 -54.81,0 -99.23,1.09 -99.23,2.43 0,1.34 44.42,2.43 99.23,2.43 54.79,0 99.21,-1.09 99.21,-2.43"
         style="fill:#17282f;fill-opacity:1;fill-rule:nonzero;stroke:none"
         id="path310" /><path
         d="m 3509.9,2816.98 c 0.12,0.02 0.51,-1.44 1.14,-4.26 0.73,-3.18 1.67,-7.27 2.84,-12.37 2.68,-10.75 7,-26.37 14.19,-45.46 7.09,-19.14 17.12,-41.58 29.38,-66.81 11.6,-25.7 22.1,-55.27 33.07,-87.32 l 0.11,-0.33 v -0.37 c -0.26,-38.37 -0.54,-80.39 -0.83,-124.28 -1.04,-97.99 -1.97,-186.66 -2.65,-251.4 -0.56,-31.81 -1.02,-57.71 -1.34,-76.17 -0.25,-8.65 -0.45,-15.54 -0.6,-20.69 -0.18,-4.74 -0.36,-7.22 -0.52,-7.21 -0.16,0 -0.3,2.5 -0.41,7.24 -0.07,5.16 -0.16,12.06 -0.27,20.72 -0.03,18.46 -0.08,44.38 -0.13,76.2 0.33,64.73 0.79,153.4 1.3,251.37 0.39,43.88 0.77,85.88 1.12,124.25 l 0.11,-0.69 c -10.77,31.97 -21.07,61.66 -32.28,87.15 -11.97,25.29 -21.8,48.08 -28.57,67.43 -6.87,19.33 -10.81,35.16 -13.06,46.06 -1.06,5.46 -1.82,9.68 -2.18,12.56 -0.4,2.86 -0.55,4.36 -0.42,4.38"
         style="fill:#17282f;fill-opacity:1;fill-rule:nonzero;stroke:none"
         id="path312" /><path
         d="m 4265.39,2891.94 c 0.33,-0.03 0.21,-4.9 -0.13,-13.67 -0.36,-9.62 -0.83,-22.13 -1.39,-37.2 -1.27,-32.23 -2.97,-75.21 -4.85,-122.73 -2.15,-47.52 -4.09,-90.5 -5.55,-122.73 -0.87,-15.05 -1.59,-27.56 -2.14,-37.17 -0.61,-8.78 -1.09,-13.62 -1.41,-13.61 -0.32,0.01 -0.44,4.88 -0.39,13.67 0.17,9.63 0.4,22.16 0.67,37.24 0.78,31.43 2.21,74.85 4.2,122.8 1.99,47.93 4.18,91.31 6.21,122.7 1.01,15.69 2,28.39 2.85,37.15 0.9,8.76 1.63,13.58 1.93,13.55"
         style="fill:#17282f;fill-opacity:1;fill-rule:nonzero;stroke:none"
         id="path314" /><path
         d="m 3580.26,2602.81 c -46.93,52.46 -73.43,120.58 -69.97,190.89 19.27,-63.26 55.47,-124.79 69.97,-190.89"
         style="fill:#20353d;fill-opacity:1;fill-rule:nonzero;stroke:none"
         id="path316" /><path
         d="m 3823.28,2159.37 c 74.26,62.18 135.12,150.24 176.65,261.51 -2.78,-46.17 -13.03,-90.26 -33.69,-130.76 -15.19,-29.78 -35.26,-58.15 -57.44,-83.16 -22.17,-25.02 -52.21,-44.76 -85.52,-47.59"
         style="fill:#20353d;fill-opacity:1;fill-rule:nonzero;stroke:none"
         id="path318" /><path
         d="m 4013.04,2469.41 c 0.15,-0.04 -0.05,-1.45 -0.59,-4.11 -0.7,-3.17 -1.55,-6.99 -2.57,-11.56 -1.08,-5.04 -2.64,-11.14 -4.8,-18.13 -2.08,-7.01 -4.29,-15.06 -7.49,-23.7 -5.77,-17.5 -14.21,-37.79 -24.58,-59.84 -10.74,-21.88 -23.73,-45.37 -39.21,-68.87 -15.67,-23.39 -32.28,-44.49 -48.34,-62.83 -16.38,-18.05 -31.89,-33.64 -45.93,-45.59 -6.78,-6.24 -13.42,-11.3 -19.14,-15.85 -5.66,-4.64 -10.75,-8.35 -15.03,-11.22 -3.88,-2.64 -7.11,-4.84 -9.8,-6.67 -2.26,-1.49 -3.49,-2.2 -3.58,-2.07 -0.1,0.13 0.96,1.1 3.05,2.83 2.54,2.02 5.59,4.44 9.25,7.35 4.1,3.08 9,6.99 14.48,11.79 5.54,4.72 11.99,9.92 18.59,16.28 13.68,12.18 28.83,27.9 44.91,45.96 15.76,18.36 32.14,39.37 47.69,62.57 15.35,23.33 28.35,46.57 39.23,68.19 10.5,21.79 19.2,41.81 25.33,59.07 3.38,8.52 5.8,16.45 8.1,23.35 2.39,6.89 4.19,12.89 5.53,17.84 1.35,4.48 2.47,8.22 3.41,11.33 0.82,2.57 1.33,3.91 1.49,3.88"
         style="fill:#17282f;fill-opacity:1;fill-rule:nonzero;stroke:none"
         id="path320" /><path
         d="m 3992.45,2669.94 c 0.16,-0.02 -0.13,-2.27 -0.83,-6.53 -0.83,-4.7 -1.92,-10.89 -3.28,-18.61 -1.37,-8.09 -3.28,-17.95 -6.17,-29.25 -2.81,-11.32 -5.53,-24.34 -9.96,-38.34 -2.08,-7.06 -4.26,-14.44 -6.52,-22.11 -2.31,-7.67 -5.29,-15.47 -8.07,-23.65 -5.35,-16.43 -12.54,-33.44 -19.8,-51.45 -15.45,-35.63 -34.55,-73.93 -57.8,-112.28 -23.58,-38.17 -49,-72.61 -73.7,-102.58 -12.74,-14.67 -24.61,-28.81 -36.81,-41.05 -6.02,-6.2 -11.61,-12.4 -17.39,-17.95 -5.8,-5.51 -11.38,-10.8 -16.71,-15.87 -10.46,-10.31 -20.82,-18.66 -29.62,-26.3 -8.74,-7.72 -16.66,-13.9 -23.24,-18.81 -6.25,-4.73 -11.26,-8.51 -15.07,-11.39 -3.48,-2.56 -5.35,-3.84 -5.44,-3.71 -0.1,0.13 1.58,1.66 4.87,4.45 3.67,3.04 8.49,7.05 14.52,12.05 6.39,5.12 14.12,11.48 22.67,19.37 8.61,7.81 18.78,16.29 29.06,26.72 5.24,5.11 10.73,10.45 16.44,16.02 5.69,5.59 11.19,11.83 17.12,18.05 12.02,12.3 23.74,26.47 36.32,41.14 24.41,29.98 49.58,64.3 73.04,102.27 23.13,38.16 42.23,76.18 57.82,111.55 7.33,17.88 14.62,34.75 20.11,51.06 2.84,8.11 5.89,15.84 8.28,23.46 2.36,7.61 4.62,14.93 6.79,21.93 4.61,13.89 7.54,26.81 10.57,38.03 3.13,11.21 5.28,20.98 6.93,29 1.71,7.65 3.08,13.77 4.12,18.41 1,4.21 1.6,6.4 1.75,6.37"
         style="fill:#17282f;fill-opacity:1;fill-rule:nonzero;stroke:none"
         id="path322" /><path
         d="m 3429.41,2869.26 c 43.92,-66.75 221.77,-337.19 274.35,-417.16 5.81,-8.82 -1.42,-20.34 -11.9,-19.03 l -315.95,39.75 c -3.37,0.42 -6.42,2.22 -8.43,4.97 l -301.79,412.16 c -6.23,8.51 0.37,20.42 10.9,19.64 l 325.08,-24.05 c 11.29,-0.83 21.52,-6.82 27.74,-16.28"
         style="fill:#dadbd8;fill-opacity:1;fill-rule:nonzero;stroke:none"
         id="path324" /><path
         d="m 3429.41,2869.26 c 0,0 -0.65,1.42 -2.52,3.79 -1.89,2.32 -5.04,5.68 -10.22,8.61 -5.05,3.13 -12.58,4.81 -21.05,5.11 -8.56,0.71 -18.38,1.52 -29.4,2.42 -44.51,3.49 -108.47,8.51 -187.4,14.7 -19.79,1.52 -40.52,3.11 -62.11,4.77 -10.8,0.82 -21.81,1.66 -33.04,2.52 -2.92,0.17 -5.37,0.54 -8.71,0.54 -3.32,-0.07 -6.63,-1.5 -9.09,-3.77 -5.07,-4.45 -6.36,-12.81 -2.4,-18.56 27.52,-37.75 56.92,-78.07 87.85,-120.49 61.95,-84.72 130.04,-177.82 201.51,-275.56 4.58,-6.19 8.67,-12.02 13.64,-18.45 1.55,-1.67 3.48,-2.99 5.61,-3.8 2.23,-0.88 4.42,-0.97 6.13,-1.21 l 11.14,-1.4 c 14.84,-1.86 29.58,-3.71 44.21,-5.55 29.26,-3.67 58.09,-7.28 86.42,-10.83 56.67,-7.08 111.32,-13.9 163.4,-20.4 3.39,-0.37 6.2,-0.91 10.03,-1.12 3.87,-0.05 7.81,1.58 10.47,4.36 2.74,2.73 4.28,6.52 4.33,10.38 0.14,3.79 -2.07,7.85 -3.81,10.13 -7.04,10.67 -13.98,21.19 -20.83,31.57 -13.69,20.74 -26.99,40.88 -39.85,60.35 -25.73,38.91 -49.7,75.16 -71.6,108.28 -43.8,65.96 -79.29,119.4 -103.98,156.59 -12.26,18.25 -21.84,32.51 -28.5,42.43 -3.2,4.66 -5.69,8.29 -7.52,10.96 -1.72,2.45 -2.64,3.68 -2.71,3.63 -0.08,-0.05 0.69,-1.38 2.26,-3.93 1.72,-2.73 4.07,-6.46 7.09,-11.25 6.46,-10.04 15.76,-24.48 27.66,-42.97 24.37,-37.4 59.38,-91.16 102.59,-157.5 21.74,-33.23 45.53,-69.6 71.06,-108.64 12.79,-19.52 26.01,-39.71 39.63,-60.5 6.82,-10.39 13.73,-20.94 20.74,-31.63 2.02,-2.83 2.91,-4.75 2.99,-7.51 -0.04,-2.56 -1.09,-5.18 -2.96,-7.02 -1.82,-1.89 -4.41,-2.93 -7.03,-2.91 -2.68,0.15 -6.33,0.75 -9.45,1.11 -52.07,6.6 -106.71,13.52 -163.36,20.7 -28.33,3.58 -57.16,7.22 -86.42,10.91 -14.63,1.85 -29.37,3.71 -44.2,5.58 l -11.15,1.4 c -1.99,0.27 -3.61,0.36 -4.89,0.9 -1.39,0.53 -2.64,1.39 -3.65,2.47 -4.4,5.97 -8.82,11.97 -13.25,17.98 -71.59,97.65 -139.78,190.67 -201.84,275.32 -31.01,42.25 -60.49,82.4 -88.09,119.99 -2.8,4.01 -1.93,9.83 1.65,13.04 1.73,1.6 3.98,2.61 6.36,2.67 2.34,0.02 5.52,-0.35 8.21,-0.5 11.23,-0.8 22.25,-1.59 33.05,-2.36 21.6,-1.54 42.33,-3.02 62.13,-4.43 78.99,-5.49 142.99,-9.94 187.53,-13.03 11.04,-0.73 20.87,-1.37 29.43,-1.94 8.61,-0.16 15.56,-1.59 20.66,-4.48 10.19,-5.65 12.93,-11.85 13.25,-11.47"
         style="fill:#17282f;fill-opacity:1;fill-rule:nonzero;stroke:none"
         id="path326" /><path
         d="m 3065.69,2889.95 c -0.01,-0.16 2.26,-0.49 6.63,-0.98 4.81,-0.49 11.18,-1.13 19.17,-1.94 17.23,-1.53 41.41,-3.68 71.4,-6.34 61.25,-5 146.09,-11.93 242.8,-19.82 l -1.93,1.12 c 15.19,-22.58 30.88,-46.02 46.62,-70.24 64.06,-98.49 120.03,-189.02 162.31,-253.43 21.01,-32.29 38.48,-58.11 50.65,-75.88 5.98,-8.52 10.72,-15.28 14.25,-20.31 3.31,-4.6 5.12,-6.97 5.27,-6.87 0.15,0.1 -1.36,2.67 -4.39,7.47 -3.32,5.16 -7.8,12.1 -13.43,20.84 -11.9,18.56 -28.64,44.67 -49.22,76.76 -41.45,64.89 -96.9,155.71 -161.04,254.29 -15.75,24.24 -31.48,47.7 -46.75,70.27 l -0.7,1.03 -1.24,0.09 c -96.76,7.18 -181.65,13.48 -242.94,18.03 -30.04,2.01 -54.26,3.64 -71.52,4.8 -8.02,0.44 -14.41,0.79 -19.24,1.06 -4.39,0.19 -6.68,0.21 -6.7,0.05"
         style="fill:#17282f;fill-opacity:1;fill-rule:nonzero;stroke:none"
         id="path328" /><path
         d="m 3261.59,2831.02 h -0.02 l -0.12,0.04 z"
         style="fill:#ffffff;fill-opacity:1;fill-rule:nonzero;stroke:none"
         id="path330" /><path
         d="m 3253.76,2826.31 c 0.79,3.75 4.33,5.31 7.81,4.71 3.75,-1.12 5.66,-1.99 8.48,-4.77 2.85,-2.8 4.05,-7.71 1.54,-10.82 -3.15,-3.9 -9.64,-2.46 -13.44,0.81 -2.91,2.51 -5.18,6.31 -4.39,10.07"
         style="fill:#ffffff;fill-opacity:1;fill-rule:nonzero;stroke:none"
         id="path332" /><path
         d="m 3401.34,2592.51 c 0,0 12.46,29.72 -19.18,33.56 -31.64,3.83 -114.72,0 -114.72,0 0,0 -45.42,-4.8 -35.83,-37.4 0,0 -26.85,-23.97 -12.47,-49.86 14.39,-25.89 20.14,-18.22 20.14,-18.22 0,0 -3.84,-31.65 20.14,-36.44 0,0 25.99,-30.69 49.91,-28.77 23.92,1.92 125.57,50.82 132.28,60.41 6.71,9.59 16.3,15.05 10.55,25.74 0,0 12.47,28.06 -14.38,32.33 0,0 -1.92,23.44 -36.44,18.65"
         style="fill:#f9a78d;fill-opacity:1;fill-rule:nonzero;stroke:none"
         id="path334" /><path
         d="m 3257.16,2581.77 c 0.01,-0.73 8.18,-1.26 21.38,-1.54 13.2,-0.27 31.42,-0.29 51.55,0.02 20.09,0.66 38.36,-0.12 51.78,3.08 13.65,3.16 19,11.17 18.36,11.34 -0.56,0.68 -6.31,-5.71 -19.13,-7.7 -12.55,-2.11 -30.99,-0.81 -51.09,-1.46 -20.13,-0.31 -38.34,-0.88 -51.53,-1.56 -13.18,-0.67 -21.33,-1.46 -21.32,-2.18"
         style="fill:#f57f62;fill-opacity:1;fill-rule:nonzero;stroke:none"
         id="path336" /><path
         d="m 3279.82,2533.83 c -0.08,-0.28 2.29,-1.4 6.88,-2.37 4.57,-0.99 11.39,-1.75 19.77,-1.23 8.38,0.49 18.25,2.26 28.84,5.23 10.61,2.93 21.9,7.01 33.82,10.67 11.9,3.68 23.42,6.33 34.03,7.02 10.36,0.47 21.57,0.19 28.99,5.86 3.67,2.61 6.19,6.2 6.92,9.87 0.7,3.61 -0.03,6.78 -1.2,8.99 -2.5,4.57 -5.9,4.83 -5.81,4.57 -0.27,-0.41 2.45,-1.37 3.94,-5.41 1.65,-3.88 0.78,-10.98 -5.94,-14.94 -6.45,-4.41 -16.04,-3.9 -27.16,-4.1 -11.18,-0.45 -23.21,-3.09 -35.31,-6.83 -11.82,-3.88 -23.09,-7.58 -33.64,-11.04 -10.31,-3.17 -19.77,-5.24 -27.81,-6.18 -16.14,-1.99 -26.14,0.8 -26.32,-0.11"
         style="fill:#f57f62;fill-opacity:1;fill-rule:nonzero;stroke:none"
         id="path338" /><path
         d="m 3313.8,2493.28 c 0.19,-0.68 8.35,0.85 21.35,4.14 12.99,3.28 30.8,8.36 50.23,14.72 19.44,6.37 36.81,12.8 49.23,17.84 12.42,5.03 19.91,8.62 19.66,9.29 -0.54,1.39 -31.78,-9.47 -70.53,-22.13 -38.71,-12.7 -70.33,-22.41 -69.94,-23.86"
         style="fill:#f57f62;fill-opacity:1;fill-rule:nonzero;stroke:none"
         id="path340" /><path
         d="m 3305.65,2455.66 c 0.1,-0.64 6.95,-0.37 17.72,2.04 10.77,2.35 25.27,7.29 40.48,14.25 15.24,6.93 28.54,14.02 38.17,19.12 9.61,5.15 15.48,8.5 15.17,9.18 -0.67,1.57 -25.54,-9.38 -55.51,-23.5 -29.92,-14.35 -56.22,-19.72 -56.03,-21.09"
         style="fill:#f57f62;fill-opacity:1;fill-rule:nonzero;stroke:none"
         id="path342" /><path
         d="m 4315.89,2741.6 c 0,0 -64.6,-258.82 -145.32,-354.35 -78.17,-92.52 -200.68,-49.99 -243.1,69.71 -42.42,119.71 -118.01,393.11 -118.01,393.11 l 92.83,70.97 160.38,-310.82 72.28,211.89 180.94,-80.51"
         style="fill:#f9a78d;fill-opacity:1;fill-rule:nonzero;stroke:none"
         id="path344" /><path
         d="m 3813.76,2842.9 -68.07,98.65 c 0,0 -22.6,5.25 -29,9 -7.72,4.51 -15.31,43.7 -15.15,51.35 0.17,7.65 -13.19,25.53 -7.79,30.57 5.41,5.03 23.66,5.4 22.68,12.76 -0.21,1.57 -13.54,17.92 -2.97,29.92 3.82,4.33 19.19,8.15 19.19,8.15 l -1.09,37.64 c 0,0 20.33,44.46 41.1,28.37 0,0 78.35,-60.19 86.24,-69.81 7.9,-9.61 38.04,-134.94 43.39,-158.46"
         style="fill:#f9a78d;fill-opacity:1;fill-rule:nonzero;stroke:none"
         id="path346" /><path
         d="m 3902.29,2921.04 c 0.15,0.04 -0.2,2.33 -1.05,6.65 -1.02,4.76 -2.36,11.02 -4.03,18.85 -3.67,16.33 -9.15,39.96 -16.57,69.06 -3.76,14.55 -7.89,30.48 -13.11,47.46 -1.39,4.24 -2.73,8.54 -4.53,12.91 -1.69,4.96 -5.86,8.27 -9.24,11.35 -7.13,6.28 -14.64,12.44 -22.39,18.73 -15.5,12.55 -31.96,25.49 -49.13,38.83 -4.42,3.13 -8.07,7.18 -14.34,9.47 -6.33,2.07 -13.06,-0.59 -17.67,-4.21 -9.44,-7.52 -15.55,-17.6 -20.87,-28.19 l -0.23,-0.47 0.02,-0.61 c 0.1,-3.64 0.21,-7.57 0.33,-11.51 0.26,-8.81 0.51,-17.55 0.77,-26.13 l 1.82,2.4 c -4.74,-1.25 -9.28,-2.65 -13.8,-4.64 -2.23,-1.08 -4.52,-2.07 -6.68,-4.36 -1.63,-2.07 -3.15,-4.35 -3.8,-6.97 -1.58,-5.18 -0.49,-10.5 1.19,-14.98 0.85,-2.29 1.93,-4.42 3.08,-6.47 l 1.73,-2.95 0.35,-0.63 -0.07,0.15 -0.1,-0.64 c -0.2,-0.86 -2.04,-2.01 -3.88,-2.75 -1.88,-0.79 -3.98,-1.41 -6.08,-2.05 -2.1,-0.65 -4.25,-1.27 -6.43,-2.13 -2.16,-1.03 -4.44,-1.53 -6.53,-4.59 -1.56,-3.21 -0.68,-5.79 -0.18,-8.01 0.63,-2.25 1.44,-4.33 2.31,-6.32 1.7,-4 3.59,-7.77 4.99,-11.49 0.68,-1.91 1.18,-3.56 1.18,-5.29 0.04,-2.35 0.35,-4.34 0.62,-6.43 0.59,-4.11 1.35,-8.11 2.16,-12.06 1.73,-7.86 3.63,-15.48 6.4,-22.74 1.52,-3.62 2.68,-7.22 5.97,-10.49 3.77,-2.84 7.13,-3.35 10.62,-4.66 6.91,-2.15 13.62,-3.83 20.16,-5.35 l -1.09,0.74 c 21.01,-29.87 38.18,-54.26 50.41,-71.65 5.84,-8.11 10.5,-14.57 13.98,-19.4 3.25,-4.41 5.03,-6.68 5.18,-6.57 0.15,0.1 -1.34,2.57 -4.3,7.17 -3.28,4.97 -7.67,11.62 -13.18,19.96 -11.91,17.61 -28.63,42.32 -49.09,72.56 l -0.38,0.57 -0.71,0.17 c -6.41,1.58 -13.09,3.33 -19.79,5.5 -3.14,1.12 -7.14,2.25 -9.18,3.97 -1.98,1.92 -3.5,5.6 -4.77,8.93 -2.57,6.92 -4.39,14.46 -6.03,22.17 -0.77,3.87 -1.49,7.81 -2.03,11.78 -0.25,1.95 -0.53,4.04 -0.54,5.82 0.02,2.43 -0.69,4.81 -1.41,6.82 -1.51,4.1 -3.4,7.88 -5.01,11.73 -0.82,1.92 -1.55,3.85 -2.07,5.73 -0.54,1.83 -0.73,3.91 -0.2,4.64 0.31,0.65 2.4,1.85 4.19,2.49 1.9,0.75 3.98,1.34 6.1,1.98 2.12,0.65 4.3,1.27 6.53,2.19 2.11,1.02 4.83,1.88 6.42,5.29 0.41,0.85 0.48,1.74 0.46,2.64 l -0.44,1.76 -0.47,0.85 -1.69,2.9 c -1.06,1.9 -2.03,3.84 -2.76,5.83 -1.47,3.95 -2.23,8.23 -1.04,11.98 0.45,1.92 1.61,3.57 2.83,5.16 1.02,1.13 3.06,2.23 5.04,3.12 4.06,1.79 8.56,3.19 12.99,4.35 l 1.89,0.49 -0.06,1.92 c -0.25,8.58 -0.5,17.32 -0.75,26.13 -0.12,3.94 -0.24,7.87 -0.34,11.51 l -0.22,-1.07 c 4.93,9.94 11.12,19.88 19.36,26.38 4.11,3.17 9.01,4.93 13.41,3.48 4.2,-1.36 8.52,-5.48 12.85,-8.64 17.19,-13.26 33.7,-26.12 49.24,-38.54 7.76,-6.22 15.31,-12.32 22.38,-18.44 3.55,-3.2 6.97,-5.87 8.26,-9.83 1.73,-4.06 3.11,-8.34 4.52,-12.49 5.33,-16.77 9.66,-32.65 13.62,-47.11 7.52,-28.65 13.64,-51.95 18.03,-68.65 2.03,-7.73 3.65,-13.92 4.89,-18.63 1.15,-4.25 1.81,-6.46 1.98,-6.43"
         style="fill:#f57f62;fill-opacity:1;fill-rule:nonzero;stroke:none"
         id="path348" /><path
         d="m 3732.65,3083.3 c 0.04,-0.83 7.96,-0.2 20.31,-1.39 6.25,-0.47 12.97,-2.8 21.42,-4.9 8.68,-1.91 18.23,-0.93 27.71,-0.24 19.05,2.59 35.12,-5.46 43.65,-14.15 8.75,-8.71 9.64,-17.06 10.52,-16.76 0.42,-0.21 0.82,8.91 -8.03,19.09 -4.32,4.93 -10.68,9.84 -18.73,13.15 -7.97,3.62 -18.13,4.33 -27.74,3.49 -9.69,-0.72 -18.68,-1.72 -26.5,-0.22 -7.8,1.69 -15.55,3.92 -22.03,3.94 -12.92,0.34 -20.62,-1.52 -20.58,-2.01"
         style="fill:#f57f62;fill-opacity:1;fill-rule:nonzero;stroke:none"
         id="path350" /><path
         d="m 3760.37,3085.36 c 1.16,-0.59 4.32,3.98 3.92,10.49 -0.38,6.51 -4.06,10.68 -5.14,9.95 -1.19,-0.68 0.06,-4.99 0.32,-10.24 0.36,-5.24 -0.36,-9.67 0.9,-10.2"
         style="fill:#f57f62;fill-opacity:1;fill-rule:nonzero;stroke:none"
         id="path352" /><path
         d="m 3714,3043.8 c -0.07,-1.23 26.81,-2.39 59.01,4.63 8.05,1.74 15.4,3.98 21.69,2.74 6.25,-1.13 11.05,-5.32 14.05,-9.27 5.92,-8.3 6.89,-15.25 7.75,-14.96 0.38,-0.02 0.83,7.13 -4.95,16.91 -2.99,4.66 -8.19,9.94 -15.97,11.68 -7.8,1.73 -15.85,-0.77 -23.59,-2.38 -31.62,-6.9 -58.03,-7.91 -57.99,-9.35"
         style="fill:#f57f62;fill-opacity:1;fill-rule:nonzero;stroke:none"
         id="path354" /><path
         d="m 3703.59,3008.2 c 0,-0.62 5.59,-1.18 14.5,-0.07 8.92,0.99 20.87,4.06 33.93,6.62 6.55,1.2 12.79,2.21 18.26,1.83 5.5,-0.32 10.08,-2.1 13.15,-4.76 6.44,-5.43 5.69,-11.6 6.41,-11.5 0.27,-0.05 0.95,1.31 0.81,3.99 -0.17,2.64 -1.5,6.55 -4.89,10.01 -3.31,3.53 -8.93,6.13 -15.1,6.69 -6.23,0.68 -12.83,-0.3 -19.53,-1.51 -13.43,-2.64 -25.05,-6.19 -33.62,-8.01 -8.53,-1.93 -13.94,-2.58 -13.92,-3.29"
         style="fill:#f57f62;fill-opacity:1;fill-rule:nonzero;stroke:none"
         id="path356" /><path
         d="m 3726.93,2979.96 c -0.82,-0.62 5.82,-7.58 18.04,-7.55 l -2.41,2.08 c 0.24,-2.15 0.48,-4.19 0.72,-6.31 1.77,-13.93 4.27,-25.06 5.59,-24.86 1.32,0.19 0.96,11.58 -0.79,25.42 -0.3,2.1 -0.58,4.13 -0.87,6.26 l -0.31,2.21 -2.11,-0.13 c -10.23,-0.63 -17.25,3.93 -17.86,2.88"
         style="fill:#f57f62;fill-opacity:1;fill-rule:nonzero;stroke:none"
         id="path358" /><path
         d="m 4213.64,3003.74 c 0,0 132.32,-32.06 132.04,-207.53 -0.28,-174.77 -39.96,-262.14 -39.96,-262.14 l -243.92,132.75 54.43,136.65 97.41,200.27"
         style="fill:#33535f;fill-opacity:1;fill-rule:nonzero;stroke:none"
         id="path360" /><path
         d="m 4305.72,2534.07 c -0.08,-0.14 -1.82,0.62 -5.08,2.21 -3.69,1.88 -8.37,4.26 -14.15,7.19 -12.77,6.74 -30.36,16.01 -51.98,27.4 -44.42,23.93 -105.31,56.74 -173.93,93.71 l -1.97,1.06 0.8,2.07 c 4.18,10.94 8.6,22.49 13.08,34.21 15.59,40.48 30.43,79.03 43.97,114.2 6.79,17.5 13.26,34.15 19.32,49.78 5.85,15.69 12.28,30.12 19.31,42.58 13.72,25.12 29.95,42.86 44.01,50.94 6.93,4.18 13.01,6.06 17.15,6.87 2.09,0.38 3.68,0.6 4.77,0.61 1.08,0.06 1.64,0.05 1.64,-0.04 0.22,-0.64 -9.22,-0.5 -22.5,-9.14 -13.33,-8.37 -28.73,-25.97 -41.88,-50.99 -6.74,-12.43 -12.85,-26.62 -18.5,-42.33 -5.93,-15.67 -12.24,-32.38 -18.88,-49.94 -13.42,-35.21 -28.13,-73.8 -43.59,-114.34 -4.49,-11.71 -8.92,-23.26 -13.11,-34.19 l -1.17,3.13 c 68.29,-37.54 128.91,-70.87 173.12,-95.17 21.31,-11.97 38.65,-21.71 51.24,-28.78 5.6,-3.26 10.14,-5.9 13.71,-7.98 3.11,-1.87 4.69,-2.91 4.62,-3.06"
         style="fill:#17282f;fill-opacity:1;fill-rule:nonzero;stroke:none"
         id="path362" /></g></g></svg>
