<?xml version="1.0" encoding="UTF-8" standalone="no" ?>
<!DOCTYPE svg PUBLIC "-//W3C//DTD SVG 1.1//EN" "http://www.w3.org/Graphics/SVG/1.1/DTD/svg11.dtd">
<svg xmlns="http://www.w3.org/2000/svg" xmlns:xlink="http://www.w3.org/1999/xlink" version="1.1" width="25" height="25" viewBox="0 0 25 25" xml:space="preserve">
<desc>Created with Fabric.js 4.6.0</desc>
<defs>
</defs>
<g transform="matrix(1 0 0 1 12.5 12.5)" id="O2GmzXEClBk2DyKrICsbZ"  >
<path style="stroke: none; stroke-width: 1; stroke-dasharray: none; stroke-linecap: butt; stroke-dashoffset: 0; stroke-linejoin: miter; stroke-miterlimit: 4; fill: rgb(254,109,67); fill-rule: evenodd; opacity: 1;" vector-effect="non-scaling-stroke"  transform=" translate(-12, -12.16)" d="M 12 23.328 L 12.658 22.753 C 18.189 17.924 21 13.707 21 10 C 21 4.751 16.903 1 12 1 C 7.097 1 3 4.751 3 10 C 3 13.707 5.811 17.924 11.342 22.753 L 12 23.328 Z M 9 10 C 9 8.343 10.343 7 12 7 C 13.657 7 15 8.343 15 10 C 15 11.657 13.657 13 12 13 C 10.343 13 9 11.657 9 10 Z" stroke-linecap="round" />
</g>
</svg>